<?xml version="1.0" encoding="UTF-8" standalone="no"?>
<!-- Created with Inkscape (http://www.inkscape.org/) -->

<svg
   version="1.1"
   id="svg1"
   width="940.323"
   height="284.72"
   viewBox="0 0 940.32306 284.72001"
   sodipodi:docname="BACKK.svg"
   inkscape:version="1.4.2 (f4327f4, 2025-05-13)"
   xmlns:inkscape="http://www.inkscape.org/namespaces/inkscape"
   xmlns:sodipodi="http://sodipodi.sourceforge.net/DTD/sodipodi-0.dtd"
   xmlns="http://www.w3.org/2000/svg"
   xmlns:svg="http://www.w3.org/2000/svg">
  <defs
     id="defs1" />
  <sodipodi:namedview
     id="namedview1"
     pagecolor="#ffffff"
     bordercolor="#000000"
     borderopacity="0.25"
     inkscape:showpageshadow="2"
     inkscape:pageopacity="0.0"
     inkscape:pagecheckerboard="0"
     inkscape:deskcolor="#d1d1d1"
     inkscape:zoom="0.57403567"
     inkscape:cx="501.71098"
     inkscape:cy="589.68461"
     inkscape:window-width="1920"
     inkscape:window-height="1057"
     inkscape:window-x="-8"
     inkscape:window-y="-8"
     inkscape:window-maximized="1"
     inkscape:current-layer="g1" />
  <g
     inkscape:groupmode="layer"
     inkscape:label="Image"
     id="g1"
     transform="translate(-241.43207,-154.72535)">
    <path
       style="fill:#000000;stroke-width:0.584125"
       d="m 1085.1765,435.93592 c -1.0455,-0.40382 -2.3897,-0.89214 -2.9872,-1.08516 -0.5973,-0.19303 -1.7719,-1.02094 -2.6101,-1.83984 -0.8383,-0.81888 -9.1694,-9.11505 -18.5136,-18.43592 -43.738,-43.62837 -54.061,-53.87926 -54.8798,-54.49637 -0.8348,-0.62926 -0.8667,-0.57627 -0.6003,0.99688 0.7482,4.41706 1.5095,18.60478 1.8367,34.22639 l 0.3619,17.27932 1.5477,0.93188 c 1.6961,1.0211 1.6983,1.0585 0.335,5.71402 -0.6837,2.33483 -2.1116,3.8214 -3.6708,3.8214 -0.4311,0 -1.5949,0.43568 -2.5863,0.96816 -2.1004,1.12839 -2.0373,1.12311 -22.23763,1.85777 -20.08621,0.7305 -29.2648,1.20163 -29.84359,1.53185 -0.2838,0.1619 -1.39856,0.29434 -2.47733,0.29434 -2.17806,0 -4.15069,-0.89275 -4.60932,-2.08604 -0.20987,-0.54613 -6.79451,-211.3867 -6.7903,-217.42931 4.2e-4,-0.64718 0.52159,-1.37536 1.39907,-1.95463 1.30589,-0.86218 1.60204,-0.90952 4.48056,-0.71644 1.69522,0.11371 15.11902,-0.0401 29.83056,-0.34159 20.49218,-0.42006 27.07238,-0.45797 28.13398,-0.16207 1.58,0.44051 3.1188,2.3789 2.5987,3.27377 -0.1918,0.33005 -0.7102,0.85796 -1.1524,1.17313 -0.638,0.45486 -0.6795,0.76323 -0.2017,1.49533 0.5361,0.82125 2.8063,66.39732 2.8014,80.9223 0,2.51298 0.1818,4.56348 0.4058,4.55664 0.2241,-0.007 3.7474,-3.03486 7.8296,-6.72897 4.0824,-3.6941 12.7305,-11.42684 19.2181,-17.18385 16.1696,-14.34863 39.9306,-36.05508 47.9248,-43.78073 8.8197,-8.5234 12.1418,-12.18573 12.6938,-13.99373 0.5647,-1.84923 2.2727,-3.03551 4.3708,-3.03551 0.856,0 2.2715,-0.32337 3.1452,-0.71861 1.3313,-0.60223 2.4931,-0.73814 7.1741,-0.83915 3.072,-0.0662 14.892,-0.34103 26.2667,-0.61057 11.3747,-0.26951 23.178,-0.49004 26.2294,-0.49004 5.1668,0 5.64,0.0562 6.8815,0.81564 1.7897,1.09507 1.8132,2.90839 0.052,3.98631 -1.6362,1.00111 -2.1669,1.02903 -31.8476,1.67519 -12.9939,0.28288 -25.5324,0.60614 -27.864,0.71834 l -4.2388,0.20401 -1.8936,2.3007 c -7.118,8.64804 -41.8682,40.83031 -78.8072,72.98345 -6.4217,5.58957 -7.6665,6.86071 -7.2195,7.37172 1.0567,1.2079 0.6363,2.87596 -0.9534,3.78395 -2.6642,1.52171 -8.9187,3.62262 -10.6929,3.59179 -1.8215,-0.0317 -4.10662,-1.3433 -4.10662,-2.35712 0,-0.32446 -0.56145,-0.77375 -1.24763,-0.99843 -0.68625,-0.22471 -1.55882,-0.71335 -1.93906,-1.08593 -0.53288,-0.5221 -0.99586,-10.89609 -2.01965,-45.25511 -0.73056,-24.51774 -1.19751,-44.91415 -1.03774,-45.32536 0.18508,-0.47619 0.0403,-0.74736 -0.39867,-0.74678 -2.78072,0.004 -45.7506,1.04146 -45.85881,1.10765 -0.11243,0.0689 6.17747,208.54687 6.30016,208.81879 0.15464,0.3426 44.57748,-1.20956 45.28013,-1.5821 0.24016,-0.12733 0.17682,-2.01035 -0.14077,-4.1845 -0.31761,-2.17417 -0.81389,-11.65396 -1.1029,-21.06622 -0.6067,-19.7585 -1.24528,-28.4298 -2.8628,-38.8785 -1.33885,-8.6484 -1.40377,-10.48491 -0.42162,-11.93561 1.33398,-1.97049 5.65388,-2.53795 7.87718,-1.03474 0.5013,0.33882 1.0918,1.41446 1.3126,2.39029 0.2206,0.97584 0.7318,2.14806 1.1358,2.60498 0.7034,0.79552 7.6163,7.69242 53.1245,53.00104 27.5231,27.40235 30.5318,30.36875 30.9657,30.52931 0.4094,0.15148 52.3712,-2.08723 52.6684,-2.26915 0.101,-0.0616 -12.9402,-13.17432 -28.9796,-29.13935 -16.0397,-15.96505 -31.789,-31.64417 -34.9984,-34.84253 -3.2095,-3.19833 -11.6487,-11.57216 -18.7541,-18.6085 -14.1747,-14.03735 -14.9113,-14.81328 -14.9113,-15.70463 0,-0.79258 1.411,-2.45599 2.2968,-2.70771 0.5423,-0.15414 0.5301,-0.24069 -0.056,-0.40387 -1.7646,-0.49077 -2.7834,-1.49237 -2.7834,-2.73654 0,-1.16447 5.6352,-6.21227 61.1158,-54.74559 33.6138,-29.40456 61.733,-53.79929 62.4872,-54.21051 1.9379,-1.05644 4.286,-0.97231 6.2406,0.22367 1.9581,1.1981 2.0621,2.50086 0.323,4.0498 -13.0254,11.60054 -121.0008,105.75808 -122.1141,106.48695 l -1.5584,1.02002 1.2633,0.41366 c 0.7498,0.24556 5.2082,4.35452 10.9714,10.11187 5.3395,5.33402 10.859,10.8197 12.2658,12.19042 1.4065,1.3707 8.8538,8.77257 16.5495,16.44859 34.6775,34.58936 59.1854,58.93178 60.6574,60.24781 0.8807,0.7874 2.1295,1.55527 2.7754,1.70643 2.0381,0.477 3.2933,1.61572 3.2321,2.9324 -0.078,1.67273 -1.9665,2.62594 -5.7063,2.87906 -2.2117,0.14971 -63.4885,2.85129 -64.5465,2.84573 -0.1299,-4.4e-4 -1.0917,-0.33164 -2.1372,-0.73544 z m -754.09995,-6.44684 c -2.42268,-0.37086 -8.76182,-0.57264 -24.71124,-0.78654 -26.17945,-0.35112 -39.70899,-1.03492 -43.71987,-2.20961 -3.88383,-1.13748 -6.01817,-2.04421 -6.63131,-2.81716 -0.65439,-0.82495 -0.87668,-4.97434 -3.96749,-74.06443 -3.64989,-81.58611 -5.37347,-119.90495 -6.45694,-143.55143 -0.83136,-18.14425 -0.86904,-21.60496 -0.24549,-22.55357 0.49253,-0.74927 0.74672,-2.67593 0.76721,-5.81515 0.0178,-2.738 0.30082,-5.16278 0.67888,-5.81792 0.53007,-0.91854 3.15387,-2.26633 14.39355,-7.39357 8.92918,-4.07326 14.20341,-6.27025 15.05273,-6.27025 0.71905,0 2.10996,0.22521 3.09088,0.50045 0.98095,0.27526 9.20702,1.24091 18.28014,2.14592 16.78274,1.674 17.77856,1.85085 19.13176,3.3979 0.27366,0.31284 0.97295,3.95873 1.55398,8.10193 0.58104,4.14321 1.14149,7.58514 1.24543,7.64875 0.10396,0.0636 4.94207,-0.9443 10.75134,-2.23981 12.338,-2.75144 17.98095,-3.66102 28.7563,-4.63518 10.86506,-0.98228 19.93355,-0.98283 26.34055,-0.002 5.61814,0.8604 13.81063,3.19482 20.09484,5.72594 5.18767,2.08946 18.27644,9.97585 22.93045,13.81634 8.73665,7.20942 15.0793,16.4137 17.92834,26.01708 1.24232,4.18762 1.42903,5.70992 1.42644,11.63032 -0.003,7.86801 -0.60456,10.6778 -4.22181,19.7332 -2.81924,7.05765 -4.42474,9.92952 -7.80171,13.95538 -5.77444,6.88402 -17.78144,16.63346 -25.67613,20.8485 -4.1394,2.21006 -18.14986,8.69514 -21.82815,10.10369 -2.58026,0.98805 -3.20625,1.48592 -1.86837,1.48592 2.86033,0 20.06029,1.8257 22.54269,2.39278 4.3031,0.98303 13.36599,4.03441 16.93466,5.70173 1.64291,0.76756 4.08686,1.78753 5.43104,2.26656 4.60111,1.63975 9.69102,4.42648 13.54639,7.41672 10.51791,8.15769 9.65165,7.36906 15.46206,14.07627 3.88547,4.48518 5.03345,6.17161 6.55975,9.63655 3.68612,8.36813 3.80685,9.12313 3.80685,23.80535 0,14.79248 -0.14676,15.627 -3.91186,22.24523 -2.81432,4.94696 -5.20551,7.8032 -10.76356,12.85686 -9.59404,8.72342 -21.18928,17.44546 -27.8732,20.96645 -4.7923,2.52453 -7.87201,3.46554 -18.55059,5.66818 -12.27435,2.5318 -23.48475,3.5864 -26.75175,2.51664 -0.63495,-0.20792 -3.75987,-0.65001 -6.94429,-0.98244 -6.68795,-0.69816 -13.07938,-2.04288 -18.73258,-3.94123 l -3.97106,-1.33348 -0.89601,1.43549 c -0.70942,1.13655 -1.59459,1.71727 -4.25062,2.78866 -3.39574,1.36976 -6.80274,3.25991 -8.78565,4.87416 -1.37773,1.12156 -3.81578,1.31742 -8.14658,0.65448 z m 0.26722,-6.85593 c -0.002,-0.41122 -0.36752,-2.52917 -0.81141,-4.70654 -0.44388,-2.17739 -0.96668,-6.22384 -1.16178,-8.99212 -0.3981,-5.64913 -0.0452,-6.43995 3.18062,-7.12798 4.20756,-0.89744 7.00644,-0.0515 7.69795,2.32659 0.24773,0.85197 1.45838,1.92782 4.27615,3.80007 12.5407,8.33261 31.18755,12.8432 45.47805,11.00093 12.79839,-1.6499 26.46359,-8.74196 39.77277,-20.64156 6.31846,-5.64924 10.06826,-10.52779 12.53772,-16.31175 2.16309,-5.06641 2.78808,-8.67374 2.78716,-16.087 -7.2e-4,-5.72873 -0.19639,-7.41977 -1.2305,-10.63345 -3.03332,-9.4267 -8.92929,-17.9912 -17.34362,-25.19335 -13.14738,-11.25335 -31.78717,-20.08534 -49.54702,-23.47658 -6.37786,-1.21785 -15.87911,-2.15789 -23.15334,-2.29078 -7.06715,-0.12908 -8.64298,-0.5292 -9.19669,-2.33511 -0.69001,-2.25041 1.33721,-3.30412 7.65884,-3.9809 9.33146,-0.99902 18.73353,-4.34351 30.84372,-10.97169 11.01614,-6.0294 18.22112,-12.55554 27.0064,-24.46186 10.38942,-14.08038 14.65472,-28.6135 11.16661,-38.04778 -2.19026,-5.92404 -6.4856,-11.81732 -11.66608,-16.00604 -16.09212,-13.01147 -43.43557,-20.18393 -76.93345,-20.18043 -13.92226,9.6e-4 -19.12583,0.79448 -28.11806,4.28509 -5.42649,2.10647 -7.54072,2.32346 -10.00472,1.02678 l -1.52381,-0.8019 -0.44029,-8.41928 c -0.24215,-4.6306 -0.53186,-8.59326 -0.64381,-8.8059 -0.38486,-0.73112 -7.06599,-0.84386 -18.37661,-0.3101 -6.18384,0.29181 -12.70552,0.53058 -14.49263,0.53058 h -3.2493 v 8.59006 c 0,5.3931 0.22246,8.98054 0.59774,9.6392 0.49534,0.86939 0.41593,1.27392 -0.46359,2.36158 -1.01301,1.25272 -1.04101,1.75575 -0.61528,11.04619 0.24532,5.35352 0.94309,20.87388 1.55058,34.48966 1.4514,32.53078 3.56793,79.77724 4.89008,109.15888 0.58389,12.97613 1.44507,32.7892 1.91371,44.02908 0.46863,11.23988 0.98506,21.50694 1.1476,22.81568 0.27822,2.24006 0.38063,2.39244 1.74727,2.59992 0.79845,0.12121 1.94759,0.50336 2.55365,0.84924 1.54165,0.87983 13.68448,1.35371 35.28606,1.37709 9.25993,0.0101 18.66919,0.12789 20.90951,0.26194 2.2403,0.13406 4.50096,0.26567 5.0237,0.29248 0.64828,0.0332 0.94906,-0.18898 0.9461,-0.69894 z m 6.79315,-44.25263 c -0.29871,-0.0735 -1.19637,-0.22149 -1.9948,-0.32879 -2.388,-0.32098 -4.70789,-1.76871 -5.5446,-3.46014 -0.42268,-0.85441 -1.14786,-1.99191 -1.61153,-2.52778 -1.24026,-1.43337 -1.36507,-2.87699 -1.69108,-19.55822 l -0.2974,-15.21584 1.36829,-0.83718 c 1.95531,-1.19635 4.9643,-1.02064 6.50081,0.37961 l 1.10948,1.0111 2.33847,-1.09131 c 7.60575,-3.54936 17.67864,-2.34486 26.72135,3.19531 4.98955,3.05693 7.86906,5.60032 11.41759,10.08476 6.38462,8.06855 6.43671,14.7986 0.15401,19.89821 -5.59685,4.5429 -18.93183,7.99675 -32.49338,8.41595 -2.98876,0.0924 -5.6785,0.10784 -5.97721,0.0342 z m 4.52585,-20.10211 c -0.0995,-7.8437 -0.33043,-14.35254 -0.51304,-14.46412 -0.1826,-0.11158 -0.97688,-0.0529 -1.76509,0.13051 -0.92199,0.21448 -1.91728,0.22072 -2.79083,0.0175 -1.62848,-0.37882 -1.53945,-1.58849 -0.77515,10.53214 0.54314,8.61351 0.65867,9.28924 1.70559,9.9751 1.02139,0.66911 1.08949,0.98816 0.75285,3.52659 -0.43559,3.28466 0.18806,4.54354 2.25087,4.54354 h 1.31581 z m 12.38893,12.89932 c 8.37553,-1.56881 14.43362,-4.32637 15.84741,-7.21353 0.35127,-0.71738 0.6387,-2.13103 0.6387,-3.14147 0,-4.71382 -6.72772,-13.01725 -13.97293,-17.24556 -2.97537,-1.73642 -7.5352,-3.51303 -8.1115,-3.16043 -0.14025,0.0858 0.006,6.63193 0.32418,14.54693 0.31855,7.91499 0.57918,14.95801 0.57918,15.65117 0,0.69314 0.21866,1.26026 0.48591,1.26026 0.26725,0 2.16132,-0.31383 4.20905,-0.69737 z M 318.72272,264.20399 c -1.11918,-0.12087 -2.46336,-0.44876 -2.98708,-0.72863 -0.52371,-0.27985 -1.85396,-0.60762 -2.95611,-0.72837 -1.25328,-0.13729 -2.50495,-0.58388 -3.34159,-1.19221 l -1.33771,-0.97269 -0.0727,-12.77977 c -0.0619,-10.86448 -0.20015,-12.93591 -0.92227,-13.82156 -0.98064,-1.20275 -0.67252,-2.78687 0.91169,-4.68682 1.43053,-1.71566 4.38615,-2.20228 6.88128,-1.13299 1.11225,0.47664 1.3141,0.4093 4.02034,-1.34145 4.65238,-3.00981 11.17004,-5.08048 17.58914,-5.58811 11.76537,-0.93041 25.42265,5.3418 31.00804,14.24071 1.9212,3.06095 2.41574,8.24334 1.09401,11.46426 -2.78783,6.7936 -9.51482,11.3547 -20.61843,13.97986 -9.40279,2.22308 -23.9728,3.85975 -29.2685,3.28777 z m 5.33666,-15.6934 c -0.1853,-5.34578 -0.48078,-11.13434 -0.65664,-12.86344 -0.28382,-2.79076 -0.40452,-3.07291 -1.07465,-2.51219 -0.48268,0.40389 -0.7061,1.3152 -0.6196,2.52729 0.14826,2.07701 -0.83956,3.16707 -3.04428,3.35939 -1.16013,0.10118 -1.16468,0.13817 -1.03458,8.409 0.0717,4.56905 0.26317,8.78333 0.4251,9.36507 0.31662,1.13733 0.91705,1.33451 4.25066,1.39597 l 2.09089,0.0386 z m 14.89217,7.99704 c 2.24033,-0.36437 5.87526,-1.18704 8.07767,-1.82817 7.95516,-2.31579 12.01141,-6.11633 12.44846,-11.6637 0.20578,-2.61171 0.0552,-3.40288 -0.9798,-5.15058 -2.54909,-4.30411 -7.61632,-8.00004 -13.57217,-9.89921 -2.88388,-0.91961 -8.92606,-1.09475 -11.83812,-0.34314 -2.99796,0.77376 -3.45848,1.75854 -2.84732,6.08877 0.29111,2.06261 0.66857,7.33898 0.83879,11.72528 0.17022,4.38629 0.44204,8.90951 0.604,10.05161 0.33702,2.37629 -0.4216,2.26992 7.26849,1.01914 z m 5.36454,163.60924 c 0.71018,-0.34333 1.59007,-1.15606 1.9553,-1.80608 l 0.66407,-1.18187 -4.08143,-2.2617 -4.08143,-2.2617 0.33776,1.98163 c 0.18577,1.08989 0.50492,3.21043 0.70921,4.7123 l 0.37145,2.73067 1.41691,-0.64451 c 0.7793,-0.35448 1.99796,-0.9254 2.70816,-1.26874 z m 73.9436,-3.59937 c 6.4049,-2.62192 11.73993,-6.07511 21.91326,-14.18378 14.15988,-11.28613 19.60779,-17.81047 22.44827,-26.88364 1.35842,-4.33917 1.28773,-23.00382 -0.10604,-27.99867 -1.60919,-5.76677 -4.41903,-11.84323 -6.5363,-14.13509 -1.07467,-1.16331 -3.19505,-3.59339 -4.71191,-5.4002 -2.54895,-3.03611 -4.0899,-4.37753 -12.79142,-11.13508 -3.12892,-2.4299 -6.73312,-4.3305 -11.81267,-6.22915 -1.49354,-0.55825 -4.05971,-1.64999 -5.7026,-2.42606 -1.64289,-0.77607 -5.93992,-2.31745 -9.54893,-3.42527 -6.27398,-1.92588 -6.96496,-2.05697 -15.75002,-2.98792 -5.05348,-0.53552 -11.02114,-1.04992 -13.26145,-1.14308 l -4.07326,-0.1694 5.43103,1.29435 c 13.19865,3.14556 24.01791,7.43992 35.03196,13.90484 19.27932,11.31639 30.63226,24.29958 35.11679,40.15943 1.16035,4.1037 1.30821,15.41073 0.26285,20.10385 -2.16053,9.6999 -6.76281,17.06052 -15.82384,25.30782 -5.54501,5.04703 -11.93269,9.82301 -17.81686,13.32148 -4.26978,2.5386 -4.90292,3.10387 -2.26886,2.02557 z m -0.23258,-144.08611 c 4.822,-3.91565 11.06285,-10.28824 13.24202,-13.52154 3.44758,-5.11533 7.47522,-15.5283 8.7242,-22.5554 2.49329,-14.02783 -4.62122,-30.34436 -17.91829,-41.09412 -3.27983,-2.65152 -13.57302,-9.133 -17.66462,-11.12318 -4.86987,-2.36873 -13.49298,-5.17818 -19.02346,-6.19797 -4.32908,-0.79825 -5.72622,-0.89794 -12.21983,-0.87186 -9.82503,0.0394 -23.65705,1.47183 -33.71403,3.49123 l -7.29033,1.46386 6.24569,0.24141 c 27.615,1.06736 49.9665,5.88902 65.69513,14.17166 9.62498,5.0685 15.45138,9.53036 20.11022,15.40037 8.84371,11.14289 10.25397,20.61544 5.15434,34.62114 -3.74989,10.29871 -12.15619,22.36454 -23.82943,34.20315 -1.76626,1.79129 8.39062,-4.90121 12.48839,-8.22875 z M 307.99464,184.77554 c 2.24031,-0.58289 4.12542,-1.08609 4.18914,-1.11819 0.15854,-0.0799 -1.95842,-15.22476 -2.14177,-15.32246 -0.4456,-0.23743 -9.07492,3.06242 -8.87075,3.39217 0.13347,0.21556 0.3871,2.45856 0.56363,4.98442 0.52384,7.49548 0.85616,9.47766 1.55757,9.29114 0.34589,-0.0919 2.46187,-0.64416 4.70218,-1.22708 z m -28.51296,-15.47086 12.49138,-0.22171 4.30602,-1.51252 c 2.3683,-0.83188 4.02,-1.57086 3.67042,-1.64215 -0.34959,-0.0712 -5.34225,-0.61593 -11.09482,-1.21031 -5.75257,-0.59436 -10.84329,-1.18621 -11.31274,-1.31519 -0.59032,-0.16221 -2.97687,0.75098 -7.73923,2.96134 -3.78715,1.75772 -6.88571,3.27516 -6.88571,3.37209 0,0.0969 0.91648,0.0894 2.03663,-0.0168 1.12018,-0.10618 7.65777,-0.29282 14.52805,-0.41475 z m 199.31917,256.72839 c -1.19481,-0.14408 -3.27306,-0.18519 -4.61829,-0.0912 -2.13898,0.14919 -2.63306,0.0562 -3.93751,-0.74203 -0.91022,-0.55691 -1.49162,-1.27213 -1.49162,-1.83497 0,-0.50726 3.28676,-11.96351 7.30392,-25.45832 4.01717,-13.4948 16.98452,-57.05935 28.81635,-96.81014 11.83184,-39.75079 23.54245,-79.08496 26.02362,-87.40928 2.48116,-8.32431 4.83652,-15.45386 5.23415,-15.84342 1.38528,-1.35719 3.2398,-1.62228 23.91255,-3.41814 12.30861,-1.06925 15.84758,-1.27445 17.0712,-0.98981 2.00712,0.46692 4.93715,2.50938 5.71618,3.98462 1.23365,2.33627 73.25074,135.10259 104.59811,192.83081 14.9461,27.52419 14.14638,25.22894 9.76523,28.02637 l -2.4451,1.56121 -26.23722,3.09694 c -14.43049,1.70333 -26.8957,3.09845 -27.70051,3.10027 -2.38466,0.006 -4.43562,-1.32588 -4.4763,-2.90565 -0.0189,-0.73779 -0.42509,-1.61874 -0.9024,-1.95766 -1.36521,-0.96942 -1.11268,-0.52206 -9.93298,-17.59592 -9.8896,-19.14367 -18.14623,-35.08122 -22.66376,-43.7472 l -3.24796,-6.23053 h -2.13972 c -2.43516,0 -32.73258,1.31116 -32.87122,1.42254 -0.0497,0.04 -0.60557,1.86718 -1.23499,4.06033 -0.62942,2.19313 -4.81315,16.62304 -9.2972,32.06645 -4.48405,15.44341 -8.28022,28.53231 -8.43594,29.08643 -0.26038,0.92654 -1.29498,1.81406 -4.89505,4.19906 -1.62561,1.07696 -1.9943,1.10129 -24.1678,1.59435 -17.92522,0.39858 -34.46383,0.4008 -37.74574,0.005 z m 29.44013,-5.64896 c 3.21733,-0.17296 10.43128,-0.4151 16.03102,-0.53809 8.91949,-0.19595 10.29363,-0.29957 11.08728,-0.83616 0.60317,-0.40779 1.59065,-2.97269 2.95459,-7.67426 1.12674,-3.88396 5.49865,-18.94959 9.71534,-33.4792 4.2167,-14.52959 7.9383,-26.84025 8.27023,-27.357 0.95029,-1.47948 2.71604,-2.00597 5.86923,-1.75005 1.48609,0.12061 11.52129,-0.16742 22.34294,-0.64127 20.87826,-0.91424 22.05982,-0.88454 23.34682,0.58682 0.31457,0.35963 0.6347,1.12416 0.71139,1.69896 0.0767,0.57481 2.88682,6.35352 6.24472,12.84157 3.35789,6.48805 7.6526,14.78713 9.54377,18.44237 1.89119,3.65525 6.66078,12.8515 10.5991,20.43613 8.09272,15.58544 8.58965,16.61861 8.27102,17.19627 -0.126,0.22845 0.0528,0.41537 0.39741,0.41537 0.3446,0 10.71958,-1.19626 23.05555,-2.65836 12.33597,-1.4621 22.58345,-2.65836 22.7722,-2.65836 0.18876,0 0.3432,-0.17595 0.3432,-0.39098 0,-0.21505 -5.88062,-11.24307 -13.068,-24.50674 -36.57746,-67.50036 -101.70617,-187.44662 -102.45257,-188.68485 -0.4682,-0.77675 -1.12146,-1.41226 -1.45168,-1.41226 -1.78951,0 -27.83379,2.45043 -28.20229,2.65348 -0.24054,0.13252 -5.44194,17.04764 -11.5587,37.58916 -45.22853,151.88795 -53.4959,179.83837 -53.34106,180.33643 0.11418,0.36727 0.92906,0.6418 2.34225,0.78907 2.61547,0.27257 18.07359,0.0376 26.17624,-0.39805 z m 41.29536,-116.97078 c -1.42413,-0.53568 -3.11902,-2.79208 -3.11902,-4.15235 0,-2.15079 7.59632,-32.19572 8.42244,-33.31244 0.96382,-1.30284 2.9955,-1.85023 5.79368,-1.56099 2.64389,0.2733 4.37062,1.12462 5.4915,2.70743 3.06127,4.32292 20.62118,32.01865 20.82041,32.83826 0.53377,2.19571 -2.63111,3.84533 -6.05217,3.15453 -1.03468,-0.20892 -2.10604,-0.62563 -2.38078,-0.92601 -0.45819,-0.50095 -1.36874,-0.46719 -11.00206,0.40799 -12.44204,1.13033 -16.68252,1.32935 -17.974,0.84358 z m 17.9269,-6.85415 c 5.49102,-0.48357 6.60653,-0.67547 6.38389,-1.09815 -0.14837,-0.28172 -2.93357,-4.62435 -6.18931,-9.65033 -4.56364,-7.045 -5.9919,-8.94782 -6.23545,-8.30737 -0.51089,1.34336 -4.68608,18.56139 -4.68608,19.32484 0,0.61867 0.23095,0.67621 2.03663,0.50737 1.12017,-0.10474 5.0308,-0.4541 8.69032,-0.77636 z m 277.11825,127.9558 c -20.39037,-1.45564 -35.04244,-3.91818 -50.23714,-8.44323 -22.69395,-6.75833 -46.03944,-18.36145 -63.71536,-31.66763 -33.16928,-24.96939 -42.98361,-57.60872 -29.09654,-96.7658 13.96148,-39.36683 57.99068,-74.26096 110.21131,-87.34493 14.67437,-3.67671 25.18711,-5.03477 38.81179,-5.01385 15.28165,0.0234 29.33721,2.10877 39.69359,5.88903 2.5372,0.92615 3.05452,1.29419 3.77491,2.68579 0.45912,0.88691 1.21582,1.78338 1.68159,1.99213 1.9485,0.8734 2.89231,2.62923 2.79393,5.19785 -0.10848,2.83156 0.7314,4.98407 5.82371,14.92693 1.792,3.49879 3.25817,6.73044 3.25817,7.18144 0,0.57549 0.29877,0.81999 1.00199,0.81999 2.38501,0 3.82813,2.7194 1.94935,3.67342 -1.43867,0.73051 -2.1456,1.83646 -8.8577,13.85799 -6.56185,11.75239 -7.78853,13.66444 -9.06012,14.12166 -0.3842,0.13817 -0.86031,0.70152 -1.05792,1.25188 -0.52227,1.45495 -2.61263,1.98602 -7.81733,1.98602 -10.42419,0 -26.04555,1.99208 -37.87639,4.83006 -35.13443,8.42813 -62.16475,25.8394 -70.04325,45.11745 -1.71753,4.20269 -2.3264,11.35293 -1.32389,15.54767 1.73979,7.28024 8.13346,15.0016 16.38522,19.7878 8.52321,4.94359 20.72529,8.68621 34.0402,10.44076 7.60521,1.00218 23.08337,1.24067 31.85253,0.49079 7.97714,-0.68215 19.00653,-2.38493 25.89092,-3.99717 l 5.1678,-1.21027 3.47933,-3.16257 c 4.00512,-3.64058 7.48252,-5.76768 9.42892,-5.76768 1.59793,0 3.58174,1.41165 3.58174,2.54872 0,0.70648 0.12984,0.75509 1.1368,0.42537 1.51082,-0.49469 3.55257,-0.14738 4.5238,0.7695 0.97886,0.92413 19.32218,34.79007 19.32218,35.67317 0,1.1678 -1.55077,2.12012 -3.45234,2.12012 -0.96887,0 -2.01947,-0.15785 -2.3348,-0.35078 -0.40227,-0.24616 -2.1758,0.95331 -5.9469,4.02206 -6.27579,5.10683 -6.03866,4.88506 -6.42076,6.00628 -0.35644,1.04625 -2.80005,1.77073 -5.02706,1.49038 -1.46305,-0.18419 -1.69395,-0.0234 -5.32531,3.7071 -10.35818,10.64107 -18.38843,15.00498 -30.41964,16.53093 -4.19164,0.53164 -21.32249,0.95109 -25.79733,0.63162 z m 24.93568,-6.60542 c 8.73688,-1.32358 14.41452,-4.80989 24.12409,-14.81322 1.69296,-1.74418 3.07815,-3.33604 3.07815,-3.53743 0,-0.20139 -2.40771,-3.36523 -5.35047,-7.03074 -2.94275,-3.66554 -6.54759,-8.5365 -8.01073,-10.82439 -1.46321,-2.28788 -2.86943,-4.16427 -3.12507,-4.16973 -0.25554,-0.006 -1.20968,0.37359 -2.12019,0.84237 -8.06308,4.1511 -32.56075,7.64138 -49.00996,6.98264 -19.44311,-0.77865 -37.5534,-4.64104 -50.75446,-10.82443 -11.3657,-5.32371 -19.86156,-12.27397 -29.65335,-24.25871 -10.29414,-12.59961 -13.26987,-19.45368 -13.2726,-30.57114 -0.005,-22.52558 11.65191,-43.24451 33.85224,-60.16601 9.47347,-7.22086 20.35484,-12.68014 32.97291,-16.5427 12.93896,-3.96083 24.52945,-5.95018 36.48801,-6.26269 8.33501,-0.21783 13.42027,0.1503 19.86918,1.43832 2.22406,0.4442 4.08502,0.76524 4.13573,0.71346 1.53326,-1.56954 2.1535,-1.91671 3.75177,-2.10017 l 1.82438,-0.20941 1.50712,-4.04287 c 3.63304,-9.74549 8.68743,-20.04761 11.96588,-24.38904 1.04227,-1.3803 1.8951,-2.61969 1.8951,-2.75423 0,-0.80771 -12.25321,-3.07651 -20.76565,-3.84495 -7.80526,-0.7046 -20.07781,-0.49207 -27.58085,0.47765 -33.19888,4.29079 -65.48967,18.47283 -89.92898,39.49664 -16.60052,14.28053 -28.6018,31.0263 -34.64498,48.34128 -4.03253,11.55409 -5.43569,19.52755 -5.42744,30.84162 0.009,13.0264 1.97001,20.7981 8.17298,32.39875 8.41479,15.7371 24.47768,29.84103 48.34576,42.44973 26.19164,13.83612 50.43031,20.61238 82.18262,22.97519 4.40859,0.32807 22.06532,-0.0988 25.47881,-0.61579 z m 43.33714,-25.12932 c 3.22344,-2.74538 6.10255,-5.2063 6.39804,-5.4687 0.64671,-0.57443 -13.78117,-27.4731 -14.65512,-27.32219 -0.30027,0.0518 -3.2612,0.94372 -6.57991,1.98195 -5.41648,1.69449 -6.32085,2.11095 -8.83644,4.06954 -2.68578,2.09099 -2.76752,2.21447 -1.96415,2.96469 0.46116,0.43055 0.93601,1.51403 1.05532,2.40772 0.4164,3.11819 6.92191,13.37071 14.53444,22.90566 2.97841,3.73067 3.11027,3.86008 3.70384,3.63563 0.26581,-0.10054 3.12053,-2.42892 6.34398,-5.1743 z M 842.13754,379.1787 c 13.98686,-0.95499 25.8001,-3.2488 30.93338,-6.00637 2.05158,-1.10217 2.41762,-1.62953 1.13089,-1.62953 -1.29596,0 -3.00835,-1.38175 -3.00835,-2.42747 0,-0.85005 -0.15429,-0.94631 -1.22188,-0.7619 -0.67211,0.11611 -4.15481,0.54218 -7.73934,0.94684 -5.50578,0.62157 -8.4556,0.73629 -19.00853,0.73922 -14.10096,0.004 -19.59026,-0.47613 -30.0216,-2.62549 -25.22395,-5.19737 -42.10385,-16.78058 -46.02848,-31.58538 -4.18084,-15.77114 6.49578,-33.33537 28.76023,-47.31392 22.19339,-13.93384 52.52923,-22.83338 82.33389,-24.15404 l 5.17337,-0.22923 -6.61364,-10.16716 c -6.07564,-9.34001 -7.80644,-11.50454 -7.80644,-9.76293 0,0.3561 -0.50646,1.04146 -1.12561,1.523 -1.40445,1.09245 -4.16297,1.19247 -5.70388,0.20687 -0.57499,-0.36781 -1.48264,-0.94509 -2.01704,-1.2829 -2.36742,-1.49644 -11.60638,-2.53319 -20.20939,-2.26779 -13.9439,0.43018 -33.43509,4.89907 -45.60371,10.4559 -16.12808,7.36493 -31.38553,20.48469 -39.6327,34.07978 -6.25852,10.3169 -9.62715,21.68848 -9.66381,32.62244 -0.0336,10.00234 2.78697,16.39838 12.45549,28.24508 9.25108,11.33521 16.71905,17.41149 27.36476,22.2652 15.10725,6.88788 37.58629,10.47251 57.25239,9.12978 z m 61.09906,-23.58605 c 0,-0.18277 -0.10772,-0.33231 -0.23948,-0.33231 -0.13176,0 -0.39059,0.14954 -0.57517,0.33231 -0.18457,0.18276 -0.0765,0.33229 0.23948,0.33229 0.31634,0 0.57517,-0.14953 0.57517,-0.33229 z m -5.6013,-110.48808 c 1.37981,-2.3759 3.30948,-5.48644 4.28809,-6.91229 l 1.77939,-2.59245 -1.18353,-0.27606 c -0.65085,-0.15184 -1.85559,-0.68787 -2.67696,-1.19117 -1.23174,-0.75463 -1.49359,-1.20713 -1.49359,-2.58022 0,-0.99973 -0.97264,-3.6831 -2.43427,-6.7153 -2.05302,-4.25955 -3.39499,-7.45388 -4.92194,-11.71589 -0.16045,-0.4477 -0.67204,-0.74766 -1.27521,-0.74766 -1.36829,0 -2.77644,2.76951 -8.26148,16.2485 -2.42469,5.95845 -4.64673,11.10933 -4.93793,11.4464 -0.40204,0.46539 -0.25689,0.7904 0.60325,1.35059 0.72425,0.47165 1.13276,1.17835 1.13276,1.95931 0,0.789 1.75282,3.782 4.94995,8.45211 2.7224,3.97678 5.08175,7.43566 5.24296,7.68639 0.2769,0.43074 3.54844,-4.7006 9.18851,-14.41226 z"
       id="path1" />
  </g>
</svg>
