<?xml version="1.0" encoding="UTF-8" standalone="no"?>
<!-- Created with Inkscape (http://www.inkscape.org/) -->

<svg
   version="1.1"
   id="svg1"
   width="454.45306"
   height="444.5715"
   viewBox="0 0 454.45307 444.57151"
   sodipodi:docname="Play (1).svg"
   inkscape:version="1.4.2 (f4327f4, 2025-05-13)"
   xmlns:inkscape="http://www.inkscape.org/namespaces/inkscape"
   xmlns:sodipodi="http://sodipodi.sourceforge.net/DTD/sodipodi-0.dtd"
   xmlns="http://www.w3.org/2000/svg"
   xmlns:svg="http://www.w3.org/2000/svg">
  <defs
     id="defs1" />
  <sodipodi:namedview
     id="namedview1"
     pagecolor="#ffffff"
     bordercolor="#000000"
     borderopacity="0.25"
     inkscape:showpageshadow="2"
     inkscape:pageopacity="0.0"
     inkscape:pagecheckerboard="0"
     inkscape:deskcolor="#d1d1d1"
     inkscape:zoom="0.57403567"
     inkscape:cx="-270.01806"
     inkscape:cy="577.49024"
     inkscape:window-width="1920"
     inkscape:window-height="1057"
     inkscape:window-x="-8"
     inkscape:window-y="-8"
     inkscape:window-maximized="1"
     inkscape:current-layer="g1" />
  <g
     inkscape:groupmode="layer"
     inkscape:label="Image"
     id="g1"
     transform="translate(-1013.1075,-168.00678)">
    <path
       style="fill:#000000"
       d="m 1213.084,611.5233 c -51.873,-6.15408 -98.5349,-28.44772 -134.5969,-64.30631 -36.6054,-36.39892 -58.3437,-81.09695 -64.3304,-132.27565 -1.4118,-12.06975 -1.3962,-36.96266 0.031,-49.18335 4.0323,-34.52846 15.8559,-67.10469 34.8417,-95.99553 14.8582,-22.60974 36.2411,-44.28633 59.3275,-60.1423 29.3711,-20.17243 66.212,-34.33461 98.1818,-37.74259 4.4098,-0.47008 9.1728,-1.46117 11.2727,-2.34561 3.3782,-1.42283 4.953,-1.5311 22.1818,-1.52495 22.7516,0.008 38.1135,1.77743 57.0909,6.57544 52.6119,13.30172 96.1743,42.41308 128.2129,85.68057 20.4071,27.55942 34.8254,62.60462 40.1921,97.691 1.9798,12.94411 2.7061,39.22071 1.4468,52.34374 -6.5078,67.81381 -42.2588,127.22714 -99.3063,165.03387 -30.3182,20.09258 -66.7861,32.8931 -104.2589,36.59572 -10.4419,1.03174 -40.1996,0.79264 -50.2866,-0.40405 z m -42.7152,-60.2739 c 2.5266,-1.31798 11.7487,-8.72745 18.0806,-14.5269 2.651,-2.42803 7.1503,-6.2146 9.9986,-8.4146 2.8482,-2.2 9.7892,-7.92727 15.4244,-12.72727 5.6352,-4.8 11.445,-9.64566 12.9106,-10.76813 1.4656,-1.12247 4.1374,-3.45353 5.9374,-5.18015 1.8,-1.72661 3.9273,-3.48295 4.7273,-3.90299 1.8543,-0.97361 15.9434,-13.17394 24.6113,-21.31198 3.6638,-3.43979 7.1585,-6.42776 7.766,-6.63993 1.4834,-0.51806 10.0939,-7.69697 12.2198,-10.18817 0.9347,-1.09523 3.0645,-2.60505 4.733,-3.35514 1.6684,-0.75009 5.1608,-3.46998 7.7608,-6.0442 4.6948,-4.64825 10.9599,-9.9206 16.6617,-14.02155 1.636,-1.17673 2.975,-2.32218 2.9755,-2.54545 0,-1.00726 11.9964,-11.67867 13.1265,-11.67867 0.4116,0 2.9894,-2.04546 5.7285,-4.54546 2.739,-2.5 7.2011,-6.34545 9.9156,-8.54545 2.7146,-2.2 6.7606,-5.8 8.9912,-8 2.2305,-2.2 7.3039,-6.45455 11.274,-9.45455 10.1285,-7.65343 12.9715,-10.32257 19.2616,-18.08344 7.7002,-9.50085 10.8977,-14.06093 10.939,-15.60073 0.094,-3.49697 -0.8744,-4.17658 -26.8736,-18.86249 -9.753,-5.50908 -38.323,-21.72595 -64.7273,-36.74045 -10.2,-5.80011 -23.7818,-13.50504 -30.1818,-17.12205 -6.4,-3.61701 -19.6545,-11.16034 -29.4545,-16.76296 -9.8,-5.60261 -19.9455,-11.37439 -22.5455,-12.82617 -2.6,-1.45178 -7.3455,-4.13469 -10.5455,-5.96202 -17.9667,-10.25975 -22.1626,-12.64562 -25.5228,-14.51279 -2.7376,-1.52125 -4.052,-2.82906 -5.0357,-5.01038 -1.6695,-3.70234 -5.6276,-7.24378 -8.096,-7.24378 -1.1245,0 -2.6006,0.80159 -3.683,2 -2.2744,2.51824 -6.579,12.87749 -7.9329,19.09091 -2.1966,10.08097 -2.5114,12.25462 -2.896,20 -0.5788,11.65409 -0.8701,52.23823 -0.3812,53.0909 0.2294,0.4 0.2934,3.67273 0.1422,7.27273 -0.5223,12.44279 -0.031,41.01612 0.7129,41.47601 0.2863,0.17695 0.1986,1.83116 -0.1948,3.67602 -0.4579,2.14699 -0.4637,3.60601 -0.016,4.05366 0.4312,0.43128 0.4572,1.99541 0.068,4.08029 -0.411,2.19992 -0.3512,4.23058 0.1711,5.81336 0.4416,1.33785 0.6169,3.1733 0.3896,4.07878 -0.2273,0.90548 -0.3808,5.55174 -0.3412,10.32501 0.3663,44.15937 0.5242,59.12542 0.6398,60.67868 0.074,1 0.4191,10.65455 0.7657,21.45455 1.074,33.46049 3.0695,68.74735 4.029,71.24785 0.2355,0.61368 1.1763,1.11578 2.0907,1.11578 0.9144,0 1.8509,0.49091 2.0812,1.09091 0.5242,1.36602 1.7205,1.37505 4.2945,0.0324 z m 17.3398,-58.28092 c -0.1295,-4.70571 -0.086,-4.83203 1.5185,-4.41244 0.9085,0.23758 3.7219,-0.0481 6.2519,-0.63486 6.5994,-1.53051 8.8866,-3.39137 32.5141,-26.45354 6.8,-6.6373 10.7096,-10.26805 8.688,-8.06832 -2.0216,2.19972 -5.9213,6.5636 -8.666,9.69751 -4.0735,4.65116 -37.481,33.78021 -39.5777,34.50901 -0.3275,0.11387 -0.6555,-1.97294 -0.7288,-4.63736 z m 0.2272,-19.75149 0.057,-10 3.2727,-0.4017 c 6.3382,-0.77796 10.2774,-3.86084 31.9746,-25.02408 31.885,-31.1003 35.235,-33.93985 16.3363,-13.84694 -14.3877,15.29676 -34.2533,38.00012 -42.8564,48.97831 -4.4,5.61472 -8.1894,10.2279 -8.4209,10.2515 -0.2316,0.0236 -0.3952,-4.45709 -0.3637,-9.95709 z m -0.3063,-27.09091 c 0,-4.94657 0.2352,-6.54545 0.9629,-6.54545 1.7948,0 7.6329,-4.73386 16.6236,-13.47934 20.9744,-20.40223 30.4147,-29.34329 25.2776,-23.94075 -16.354,17.19892 -32.7632,36.32391 -38.8144,45.23827 -1.9685,2.9 -3.685,5.27273 -3.8144,5.27273 -0.1294,0 -0.2353,-2.94546 -0.2353,-6.54546 z m 19.6913,-6.18181 c 0.6288,-0.8 5.8987,-7.01819 11.7109,-13.81819 11.0846,-12.96845 21.9882,-24.47444 53.4104,-56.36116 10.4469,-10.60136 20.6589,-21.0752 22.6935,-23.27519 l 3.6991,-4 2.2745,1.27272 c 1.251,0.7 2.7039,1.27273 3.2287,1.27273 0.5248,0 1.1425,0.49091 1.3728,1.09091 0.2302,0.6 1.0561,1.09091 1.8354,1.09091 3.1141,0 1.6323,1.94921 -5.6961,7.49279 -19.0628,14.42025 -33.5831,27.51807 -88.0374,79.41284 -4.1993,4.0019 -7.1206,6.62164 -6.4918,5.82164 z m 39.9787,-11.67922 c 8.9202,-9.91339 30.3289,-32.20255 49.7202,-51.76494 19.7045,-19.87838 22.6602,-22.59374 23.6549,-21.73127 0.6252,0.5421 1.4661,1.11015 1.8687,1.26235 0.4026,0.15219 4.0516,2.15853 8.1089,4.45853 4.0573,2.3 7.8656,4.18182 8.4629,4.18182 0.5973,0 1.2744,0.49091 1.5047,1.09091 0.2302,0.6 0.9198,1.09091 1.5323,1.09091 0.6126,0 1.1138,0.28984 1.1138,0.64409 0,0.55393 -14.9424,13.45598 -23.2592,20.08318 -1.5059,1.2 -5.6089,4.63637 -9.1178,7.63637 -3.5089,3 -8.4481,7.12893 -10.9761,9.17541 -2.528,2.04648 -6.8168,5.65866 -9.5307,8.02707 -11.7529,10.25661 -12.8957,10.64161 -3.8144,1.28496 18.9006,-19.47359 29.9177,-31.11059 37.706,-39.82786 2.7233,-3.04808 3.0853,-3.83 2.6897,-5.80844 -0.6099,-3.04949 -2.0784,-4.41421 -4.1814,-3.88597 -3.7824,0.95006 -42.2015,33.46084 -67.8798,57.44073 -5.6,5.22962 -9.0212,8.21858 -7.6027,6.64215 z m -59.7392,-5.83593 c -0.038,-0.36667 -0.1719,-3.31096 -0.2974,-6.54287 l -0.2281,-5.8762 5.1875,-3.94198 c 2.8532,-2.16809 9.1233,-7.21529 13.9337,-11.21599 4.8104,-4.00071 10.5462,-8.74616 12.7462,-10.54546 l 4,-3.27144 -3.4891,4 c -1.919,2.2 -5.8463,6.7803 -8.7273,10.17844 -2.8809,3.39815 -5.7419,6.68373 -6.3576,7.30129 -1.3758,1.37997 -8.7032,10.38639 -12.8641,15.8119 -3.7014,4.82634 -3.8161,4.94687 -3.9038,4.10231 z m 33.5714,-26.48485 c 11.4415,-13.35766 31.0301,-33.36705 46.4978,-47.49677 6.6,-6.02909 12.6164,-11.89973 13.3698,-13.04588 0.9436,-1.43552 1.7356,-1.93247 2.5455,-1.59721 0.6466,0.26769 1.7483,0.65138 2.4483,0.85265 0.7,0.20127 1.2728,0.65505 1.2728,1.0084 0,0.35334 0.6545,0.64245 1.4545,0.64245 2.4914,0 1.6416,1.13755 -4.0507,5.42187 -10.0918,7.59573 -30.3382,25.45244 -55.2069,48.69083 -6.8083,6.36198 -13.5004,12.58017 -14.8713,13.81818 -1.3709,1.23801 1.5722,-2.49452 6.5402,-8.29452 z m -29.5088,-2.36364 c 11.2002,-11.70517 29.9623,-30.06287 44.7405,-43.77616 8.5964,-7.97689 15.7934,-14.68749 15.9934,-14.91245 0.2,-0.22496 3.1502,-2.91417 6.5561,-5.97603 l 6.1925,-5.56701 3.973,1.93401 c 2.1851,1.0637 4.6108,2.56456 5.3905,3.33524 1.4046,1.3884 1.4014,1.4117 -0.3473,2.54352 -6.9498,4.4982 -50.5063,38.42176 -74.7634,58.22884 -6.3738,5.20452 -11.8569,9.46277 -12.1847,9.46277 -0.3277,0 1.6745,-2.37273 4.4494,-5.27273 z m -5.4479,-10.97773 v -6.29499 h 2.5112 c 3.3102,0 5.6763,-1.08867 10.9433,-5.03522 4.1104,-3.07992 20.4867,-16.77465 26.9379,-22.52699 1.6158,-1.44078 1.2886,-1.01752 -0.7273,0.94058 -2.0158,1.95811 -11.7651,11.58176 -21.6651,21.3859 l -18,17.82571 z m -0.7042,-25.93136 -0.023,-12 h 5.6438 c 5.3187,0 5.9591,-0.18035 11.1147,-3.13018 3.009,-1.7216 8.5693,-5.46019 12.3562,-8.30798 l 6.8853,-5.17781 -5.4545,6.12448 c -3,3.36846 -8.2099,9.23433 -11.5776,13.03526 -3.3677,3.80093 -8.601,9.65601 -11.6297,13.0113 -3.0287,3.35528 -5.9083,6.62801 -6.3993,7.27272 -0.7169,0.94143 -0.8972,-1.19037 -0.9158,-10.82779 z m 34.4962,-15.81818 c 3.8202,-4.3 10.0849,-11.25454 13.9215,-15.45454 3.8365,-4.2 7.8476,-8.96917 8.9134,-10.59815 l 1.9378,-2.96179 3.2631,1.66857 c 1.7947,0.91772 3.8358,1.67779 4.5358,1.68906 2.286,0.0368 1.3407,2.08563 -2.0334,4.40712 -4.6328,3.18745 -22.7229,17.34974 -30.3134,23.73168 -3.4907,2.93493 -6.5322,5.33623 -6.7588,5.33623 -0.2265,0 2.7137,-3.51818 6.534,-7.81818 z m -35.2183,-8.66666 0.028,-7.15152 3.4395,-1.67121 c 1.8918,-0.91916 7.3609,-4.6427 12.1536,-8.27452 9.4699,-7.17614 21.5346,-15.29429 22.0151,-14.81372 0.1652,0.16519 -0.8305,1.5491 -2.2126,3.07535 -1.3822,1.52626 -5.9954,6.75293 -10.2516,11.61483 -7.0589,8.06344 -22.7702,23.54448 -24.4888,24.12988 -0.4335,0.14766 -0.7007,-2.55308 -0.6835,-6.90909 z m 31.1864,-13.69697 c 5.759,-6.4 11.2375,-12.4475 12.1744,-13.43889 l 1.7035,-1.80251 3.3313,1.80251 c 1.8322,0.99139 3.469,2.0181 3.6374,2.28159 0.1684,0.26349 -1.9038,1.86774 -4.6049,3.56501 -4.1943,2.63567 -9.1897,6.21968 -24.1754,17.34506 -1.3954,1.03598 2.1748,-3.35277 7.9337,-9.75277 z m -26.164,-20.36364 c 1.7482,-2.4 4.6122,-6.06677 6.3644,-8.14838 3.4121,-4.05366 3.5665,-4.08079 8.0989,-1.42257 l 2.4231,1.42112 -2.4231,1.46229 c -3.462,2.08927 -13.4975,8.34283 -15.7417,9.80938 -1.6006,1.04599 -1.3991,0.55375 1.2784,-3.12184 z m -5.7629,-8.72727 c -0.017,-4 -0.2393,-8.53335 -0.4939,-10.0741 l -0.4628,-2.80138 2.2529,1.16501 c 1.2391,0.64076 2.76,1.16501 3.3799,1.16501 0.6199,0 1.127,0.30634 1.127,0.68074 0,0.37441 1.3052,1.4143 2.9005,2.31088 l 2.9004,1.63014 -4.1969,4.41639 c -2.3083,2.42902 -4.9122,5.39822 -5.7865,6.59822 l -1.5896,2.18182 z"
       id="path1" />
  </g>
</svg>
