<?xml version="1.0" encoding="UTF-8" standalone="no"?>
<!-- Created with Inkscape (http://www.inkscape.org/) -->

<svg
   version="1.1"
   id="svg1"
   width="454.453"
   height="444.5715"
   viewBox="0 0 454.45301 444.57151"
   sodipodi:docname="PLAY.svg"
   inkscape:version="1.4.2 (f4327f4, 2025-05-13)"
   xmlns:inkscape="http://www.inkscape.org/namespaces/inkscape"
   xmlns:sodipodi="http://sodipodi.sourceforge.net/DTD/sodipodi-0.dtd"
   xmlns="http://www.w3.org/2000/svg"
   xmlns:svg="http://www.w3.org/2000/svg">
  <defs
     id="defs1" />
  <sodipodi:namedview
     id="namedview1"
     pagecolor="#ffffff"
     bordercolor="#000000"
     borderopacity="0.25"
     inkscape:showpageshadow="2"
     inkscape:pageopacity="0.0"
     inkscape:pagecheckerboard="0"
     inkscape:deskcolor="#d1d1d1"
     inkscape:zoom="0.57403567"
     inkscape:cx="-92.328756"
     inkscape:cy="479.93533"
     inkscape:window-width="1920"
     inkscape:window-height="1057"
     inkscape:window-x="-8"
     inkscape:window-y="-8"
     inkscape:window-maximized="1"
     inkscape:current-layer="g1" />
  <g
     inkscape:groupmode="layer"
     inkscape:label="Image"
     id="g1"
     transform="translate(-835.41818,-265.56169)">
    <path
       style="fill:#000000"
       d="m 1035.3947,709.07821 c -51.87297,-6.15408 -98.53489,-28.44772 -134.59692,-64.30631 -36.60542,-36.39892 -58.34367,-81.09695 -64.33036,-132.27565 -1.41187,-12.06975 -1.39622,-36.96266 0.0309,-49.18335 4.03228,-34.52846 15.85586,-67.10469 34.84169,-95.99553 14.85815,-22.60974 36.24105,-44.28633 59.32744,-60.1423 29.37119,-20.17243 66.21203,-34.33461 98.18185,-37.74259 4.4097,-0.47008 9.1728,-1.46117 11.2727,-2.34561 3.3782,-1.42283 4.953,-1.5311 22.1818,-1.52495 22.7516,0.008 38.1135,1.77743 57.0909,6.57544 52.6119,13.30172 96.1742,42.41308 128.2129,85.68057 20.4071,27.55942 34.8254,62.60462 40.1921,97.691 1.9798,12.94411 2.7061,39.22071 1.4468,52.34374 -6.5078,67.81381 -42.2588,127.22714 -99.3063,165.03387 -30.3183,20.09258 -66.7861,32.8931 -104.2589,36.59572 -10.4419,1.03174 -40.1996,0.79264 -50.2866,-0.40405 z m -28.7783,-121.51308 c 4.709,-3.13628 9.6099,-6.35687 10.891,-7.15687 1.281,-0.8 5.3658,-3.58181 9.0773,-6.18181 3.7114,-2.6 8.4836,-5.87273 10.6047,-7.27273 6.2105,-4.09912 19.8969,-13.39935 26.4328,-17.96168 3.3251,-2.32107 8.7784,-6.02014 12.1184,-8.22014 11.2295,-7.39675 36.3046,-24.44151 45.4723,-30.90975 13.7463,-9.69861 19.7634,-13.82477 32.3636,-22.19304 8.6737,-5.76044 21.7044,-15.60788 23.9336,-18.08678 1.8257,-2.03017 0.9146,-4.09283 -3.3278,-7.53378 -2.6927,-2.18397 -21.7749,-15.48752 -57.5307,-40.10867 -4.7087,-3.24238 -11.4178,-7.87207 -14.9091,-10.28819 -3.4913,-2.41613 -10.1114,-6.97001 -14.7114,-10.11974 -4.6,-3.14973 -22.9273,-15.76466 -40.7273,-28.03318 -17.8,-12.26852 -35.1191,-24.19999 -38.487,-26.51437 -3.3678,-2.31438 -7.2597,-4.6828 -8.6487,-5.26314 -5.31106,-2.21911 -8.20655,0.66222 -9.49044,9.444 -1.23103,8.42026 -1.1875,8.61834 2.3923,10.88515 3.07577,1.94765 3.15072,2.08465 2.58614,4.72728 -0.95146,4.45349 -1.40037,19.26042 -1.94565,64.17604 -0.74249,61.15994 -0.57035,137.14558 0.35235,155.53121 l 0.37796,7.53121 2.30687,-0.37435 c 1.26877,-0.20589 6.15967,-2.9404 10.86877,-6.07667 z m 1.1323,-19.66738 c -0.019,-8.15947 -0.7995,-44.65997 -1.8484,-86.39857 -0.583,-23.2 -1.3792,-55.10909 -1.7692,-70.90909 -0.39,-15.8 -0.8959,-31.42727 -1.1243,-34.72727 -0.4232,-6.11536 -0.028,-7.03898 2.1022,-4.90909 0.6,0.6 1.4143,1.09091 1.8095,1.09091 0.3953,0 0.8278,0.24545 0.9611,0.54545 0.2984,0.67143 9.0147,6.72728 9.6827,6.72728 0.265,0 0.938,0.40909 1.4955,0.90909 1.8227,1.6346 2.785,2.33403 11.032,8.01876 4.4823,3.08968 8.4914,5.6176 8.9091,5.6176 0.4177,0 0.7595,0.31348 0.7595,0.69661 0,0.38314 1.5545,1.5941 3.4545,2.69103 1.9,1.09693 3.7163,2.41981 4.0362,2.93975 0.3198,0.51993 1.2198,0.94534 2,0.94534 0.7801,0 1.4184,0.32263 1.4184,0.71695 0,0.39432 1.3909,1.61853 3.0909,2.72047 1.7,1.10193 3.2545,2.17113 3.4545,2.37601 0.5399,0.55305 8.9785,6.13933 9.788,6.47952 0.3834,0.16113 1.5255,1.06113 2.538,2 1.0125,0.93888 2.1917,1.70705 2.6204,1.70705 0.4286,0 1.4138,0.58105 2.1892,1.29123 2.2915,2.09873 15.4269,11.0724 16.2074,11.0724 0.3947,0 0.8267,0.28439 0.96,0.63197 0.1334,0.34758 3.3516,2.7077 7.1516,5.24472 3.8,2.53702 7.0727,4.789 7.2727,5.0044 0.2,0.2154 4.2112,3.00982 8.9137,6.20982 4.7025,3.2 11.7389,8.0262 15.6364,10.72489 14.0132,9.70311 17.7641,12.1842 18.4199,12.1842 0.3665,0 0.6663,0.30327 0.6663,0.67395 0,0.37067 0.5395,0.77976 1.1989,0.90909 1.4135,0.27726 -5.0027,5.27183 -19.017,14.8033 -17.0509,11.59672 -39.4046,27.11258 -78.5455,54.51887 -21.2,14.84417 -40.1,28.05156 -42,29.34976 l -3.4545,2.36036 z"
       id="path1" />
  </g>
</svg>
