<?xml version="1.0" encoding="UTF-8" standalone="no"?>
<!-- Created with Inkscape (http://www.inkscape.org/) -->

<svg
   version="1.1"
   id="svg1"
   width="454.45297"
   height="444.5715"
   viewBox="0 0 454.45298 444.57151"
   sodipodi:docname="Stop.svg"
   inkscape:version="1.4.2 (f4327f4, 2025-05-13)"
   xmlns:inkscape="http://www.inkscape.org/namespaces/inkscape"
   xmlns:sodipodi="http://sodipodi.sourceforge.net/DTD/sodipodi-0.dtd"
   xmlns="http://www.w3.org/2000/svg"
   xmlns:svg="http://www.w3.org/2000/svg">
  <defs
     id="defs1" />
  <sodipodi:namedview
     id="namedview1"
     pagecolor="#ffffff"
     bordercolor="#000000"
     borderopacity="0.25"
     inkscape:showpageshadow="2"
     inkscape:pageopacity="0.0"
     inkscape:pagecheckerboard="0"
     inkscape:deskcolor="#d1d1d1"
     inkscape:zoom="0.57403567"
     inkscape:cx="179.43136"
     inkscape:cy="293.53576"
     inkscape:window-width="1920"
     inkscape:window-height="1057"
     inkscape:window-x="-8"
     inkscape:window-y="-8"
     inkscape:window-maximized="1"
     inkscape:current-layer="g1" />
  <g
     inkscape:groupmode="layer"
     inkscape:label="Image"
     id="g1"
     transform="translate(-563.65806,-451.96125)">
    <path
       style="fill:#000000"
       d="m 763.63464,895.47777 c -51.87303,-6.15408 -98.53495,-28.44772 -134.59698,-64.30631 -36.60542,-36.39892 -58.34367,-81.09695 -64.33036,-132.27565 -1.41187,-12.06975 -1.39622,-36.96266 0.0309,-49.18335 4.03228,-34.52846 15.85586,-67.10469 34.84169,-95.99553 14.85815,-22.60974 36.24105,-44.28633 59.32744,-60.1423 29.37119,-20.17243 66.21203,-34.33461 98.18181,-37.74259 4.4098,-0.47008 9.1728,-1.46117 11.2727,-2.34561 3.3782,-1.42283 4.9531,-1.5311 22.1819,-1.52495 22.7515,0.008 38.1134,1.77743 57.0909,6.57544 52.6118,13.30172 96.1742,42.41308 128.2128,85.68057 20.4072,27.55942 34.82546,62.60462 40.19206,97.691 1.9799,12.94411 2.7062,39.22071 1.4468,52.34374 -6.5078,67.81381 -42.25866,127.22714 -99.30626,165.03387 -30.3182,20.09258 -66.7861,32.8931 -104.2589,36.59572 -10.4419,1.03174 -40.1995,0.79264 -50.2865,-0.40405 z m -18.5455,-107.79434 c 2,-0.0118 38.1637,0.0628 80.3637,0.16574 42.2,0.10298 78.3636,-0.007 80.3636,-0.24523 3.0848,-0.36689 3.6723,-0.68598 3.8733,-2.10387 0.1304,-0.91927 -0.3721,-2.8829 -1.1166,-4.36364 -1.1043,-2.19629 -1.2382,-3.36212 -0.727,-6.32861 0.8566,-4.96958 1.1581,-147.67264 0.3919,-185.45453 -0.3829,-18.88519 -0.922,-31.29539 -1.4122,-32.51 -1.3315,-3.29923 -3.784,-4.30166 -12.4435,-5.08607 -4.3953,-0.39814 -8.2679,-0.44735 -8.6059,-0.10936 -0.3379,0.33798 -44.9326,0.5689 -99.0991,0.51314 -86.35996,-0.0889 -98.69816,-0.23627 -100.21827,-1.197 -4.42496,-2.79663 -8.49856,-2.04333 -10.33358,1.91093 -1.55425,3.34921 -2.87128,12.32228 -2.39316,16.30482 0.22755,1.89545 0.59505,20.79172 0.81666,41.99172 0.75861,72.57084 1.68242,124.57737 2.22959,125.51616 0.13632,0.23389 0.29313,5.18652 0.34847,11.00585 0.0553,5.81933 0.33893,12.60173 0.6302,15.072 0.49493,4.19754 0.39655,4.66704 -1.50356,7.17596 -3.66824,4.84354 -2.69176,6.99117 4.66696,10.26435 5.94502,2.64437 8.97684,3.47822 14.71397,4.04683 2.4,0.23787 5.18182,0.61876 6.18182,0.84643 1,0.22767 4.76364,0.51675 8.36364,0.6424 3.6,0.12564 8.67272,0.52972 11.27272,0.89794 2.6,0.36823 6.03637,0.53341 7.63637,0.36708 1.59997,-0.16634 3.62497,-0.0336 4.49997,0.29492 0.875,0.32854 3.0023,0.55374 4.7273,0.50044 1.725,-0.0533 4.7727,-0.10657 6.7727,-0.1184 z m 149.5961,-21.42106 -1.6363,-1.63636 -89.9799,-0.11973 c -49.4889,-0.0658 -95.83681,0.1863 -102.99529,0.56034 -7.15848,0.37403 -13.11059,0.58489 -13.22692,0.46857 -0.11632,-0.11633 0.0684,-5.44121 0.41037,-11.83307 0.34202,-6.39186 0.81628,-19.31248 1.0539,-28.71248 0.92688,-36.66661 1.13545,-45.31555 1.49074,-61.81817 0.20237,-9.4 0.54755,-32.63637 0.76707,-51.63636 0.36372,-31.48103 0.80322,-47.25266 1.33149,-47.78093 0.10952,-0.10952 5.41271,0.10323 11.78486,0.47279 15.80388,0.91655 30.09388,1.38612 67.22208,2.20893 17.4,0.3856 38.8364,0.87467 47.6364,1.08682 8.8,0.21215 23.0363,0.54945 31.6363,0.74956 8.6,0.2001 21.5718,0.56357 28.8263,0.80769 l 13.1898,0.44386 0.083,35.36927 c 0.045,19.4531 0.244,39.95109 0.441,45.55109 0.197,5.6 0.5322,17.54546 0.7448,26.54546 0.2127,9 0.5421,22.58181 0.732,30.18181 0.3241,12.9675 1.2544,35.0846 2.2255,52.90909 0.2342,4.3 0.3074,7.81818 0.1626,7.81818 -0.1449,0 -0.9997,-0.73636 -1.8996,-1.63636 z"
       id="path1" />
  </g>
</svg>
