<?xml version="1.0" encoding="UTF-8" standalone="no"?>
<!-- Created with Inkscape (http://www.inkscape.org/) -->

<svg
   version="1.1"
   id="svg1"
   width="1273.0682"
   height="356.46014"
   viewBox="0 0 1273.0683 356.46015"
   sodipodi:docname="VOLVER.svg"
   inkscape:version="1.4.2 (f4327f4, 2025-05-13)"
   xmlns:inkscape="http://www.inkscape.org/namespaces/inkscape"
   xmlns:sodipodi="http://sodipodi.sourceforge.net/DTD/sodipodi-0.dtd"
   xmlns="http://www.w3.org/2000/svg"
   xmlns:svg="http://www.w3.org/2000/svg">
  <defs
     id="defs1" />
  <sodipodi:namedview
     id="namedview1"
     pagecolor="#ffffff"
     bordercolor="#000000"
     borderopacity="0.25"
     inkscape:showpageshadow="2"
     inkscape:pageopacity="0.0"
     inkscape:pagecheckerboard="0"
     inkscape:deskcolor="#d1d1d1"
     inkscape:zoom="0.57403567"
     inkscape:cx="585.32948"
     inkscape:cy="333.60296"
     inkscape:window-width="1920"
     inkscape:window-height="1057"
     inkscape:window-x="-8"
     inkscape:window-y="-8"
     inkscape:window-maximized="1"
     inkscape:current-layer="g1" />
  <g
     inkscape:groupmode="layer"
     inkscape:label="Image"
     id="g1"
     transform="translate(-158.55761,-411.28354)">
    <path
       style="fill:#000000"
       d="m 254.79296,765.84241 c -1.10384,-1.10385 -2.15795,-2.45987 -2.34245,-3.01338 -0.27161,-0.81483 -0.64844,-0.83889 -1.97972,-0.12641 -2.12159,1.13544 -5.34636,0.41083 -7.20167,-1.61822 -0.91469,-1.00034 -3.52433,-8.67544 -6.97291,-20.50773 -3.03114,-10.39999 -7.94405,-27.25454 -10.91759,-37.45454 -2.97354,-10.2 -11.69569,-40.14545 -19.38256,-66.54545 -17.93113,-61.58313 -34.94623,-119.99416 -41.93498,-143.9583 -3.0263,-10.37706 -5.50286,-19.5407 -5.50347,-20.36363 -6e-4,-0.82293 0.30866,-3.7215 0.68725,-6.44127 0.8048,-5.78155 2.23801,-7.6229 6.43774,-8.27104 1.91501,-0.29555 9.16236,-4.26855 21.84732,-11.97673 10.43993,-6.34396 19.74144,-11.53447 20.67,-11.53447 0.92857,0 2.32083,0.57272 3.09392,1.27272 1.29275,1.17053 4.37373,1.29072 38.36692,1.4968 30.72314,0.18626 37.10497,0.39719 37.81253,1.24975 0.48981,0.59019 1.14448,5.74451 1.54189,12.13956 3.13685,50.47735 13.71517,206.62936 14.01839,206.93258 0.21096,0.21096 2.15397,-3.34376 4.3178,-7.89938 2.16383,-4.55563 11.86555,-24.31932 21.55939,-43.91932 9.69384,-19.59999 20.65839,-41.85454 24.36567,-49.45454 3.70728,-7.6 13.36385,-27.23636 21.45905,-43.63636 8.0952,-16.4 19.27777,-39.14307 24.85015,-50.54016 9.35371,-19.13096 12.16709,-24.00529 13.85544,-24.00529 0.71635,0 6.44654,-4.48366 20.92531,-16.37326 5.4,-4.43435 10.23632,-8.31659 10.74738,-8.62721 0.51106,-0.31063 16.15861,-0.74901 34.77234,-0.97418 l 33.84315,-0.40941 2.47729,2.46476 c 1.43741,1.43014 2.48698,3.20962 2.50038,4.23925 0.0127,0.97596 -35.31991,77.75697 -78.51691,170.62445 -43.19701,92.86748 -79.34449,170.66905 -80.32775,172.89238 -1.79143,4.05072 -3.4676,5.34407 -5.77726,4.45777 -0.66746,-0.25613 -1.54326,-1.08174 -1.94623,-1.83468 -0.46744,-0.87343 -1.52244,-1.36898 -2.91447,-1.36898 -1.2,0 -2.9577,-0.50837 -3.90599,-1.12972 -1.5903,-1.042 -1.80007,-1.02273 -2.70168,0.24822 -2.17763,3.06965 -3.35059,3.20222 -40.55365,4.58323 -48.04253,1.78339 -44.82679,1.82542 -47.27002,-0.61781 z m 42.74691,-12.52175 c 22.01432,-0.79954 40.61523,-1.24427 41.33536,-0.9883 0.72014,0.25597 1.81508,0.89667 2.43322,1.42378 0.98805,0.84255 2.27748,-1.65379 10.66939,-20.656 8.55997,-19.38276 85.25799,-194.18455 107.27046,-244.47918 4.80372,-10.97565 9.49976,-21.12111 10.43565,-22.54546 1.58759,-2.41619 6.86425,-15.3567 6.86425,-16.83392 0,-0.78563 -13.01882,-0.84732 -38.10055,-0.18056 l -18.10055,0.48118 -13.07616,26.60815 c -7.19188,14.63449 -17.41714,35.44452 -22.7228,46.24452 -5.30565,10.8 -16.09936,32.72727 -23.98601,48.72727 -7.88666,16 -22.8516,46.43636 -33.25543,67.63636 -10.40382,21.2 -19.41644,39.11178 -20.02803,39.80395 -1.47797,1.67273 -5.45041,2.36124 -7.44978,1.29122 -1.34389,-0.71923 -1.85797,-0.61357 -3.21436,0.6607 -2.34108,2.19933 -6.55475,2.04569 -8.74619,-0.3189 -1.82358,-1.96768 -1.14583,1.2387 -15.67648,-74.16424 -9.0674,-47.05285 -17.1025,-88.64323 -21.9541,-113.63636 l -4.41176,-22.72727 -15.7298,0.0807 c -23.91069,0.12273 -57.37619,0.95647 -57.85955,1.44147 -0.41185,0.41326 2.35648,10.16163 22.49254,79.20506 15.78891,54.13775 31.06493,106.61101 45.41472,155.99999 7.67043,26.4 14.08536,48.4232 14.25539,48.94045 0.22845,0.69498 0.67527,0.74451 1.71184,0.18975 0.81078,-0.43391 18.29325,-1.36415 41.42873,-2.2044 z m -9.34665,-206.3878 c -3.65548,-55.49589 -6.77755,-101.30709 -6.93794,-101.80267 -0.17319,-0.53514 -3.91996,1.98932 -9.22661,6.21661 -4.91426,3.91471 -10.17784,8.05271 -11.69685,9.19555 -1.92286,1.44668 -2.61609,2.43028 -2.28205,3.23793 0.44655,1.0797 4.17838,20.121 18.11552,92.43277 3.04525,15.8 8.30446,43.05229 11.68713,60.56066 3.38268,17.50836 6.18829,32.23563 6.2347,32.72727 0.0464,0.49163 0.23468,0.3178 0.4184,-0.38631 0.18371,-0.7041 -2.65682,-46.68592 -6.3123,-102.18181 z m 140.73236,48.55291 c 13.49208,-29 29.85304,-64.18181 36.35769,-78.18181 6.50464,-14 17.46958,-37.56364 24.36651,-52.36363 15.41639,-33.08172 16.35242,-35.18118 15.07758,-33.81818 -0.56119,0.6 -4.02199,4.5643 -7.69066,8.80957 -4.8983,5.66813 -6.67032,8.24659 -6.67032,9.70591 0,1.09299 -0.61303,2.85595 -1.36228,3.9177 -0.74925,1.06175 -2.92474,5.85772 -4.83443,10.65772 -1.90969,4.8 -20.63916,47.83636 -41.62105,95.63636 -20.98189,47.8 -38.33126,87.4 -38.55417,88 -1.7695,4.76305 3.60718,-6.52976 24.93113,-52.36364 z m -168.36922,-144.36363 8.26693,-6.54545 -29.28762,-0.36364 c -26.11564,-0.32425 -29.38261,-0.49362 -30.1647,-1.56386 -0.78126,-1.06909 -2.2072,-0.38498 -13.05046,6.26114 -6.69536,4.10376 -12.4104,7.71359 -12.70011,8.02186 -0.2897,0.30826 6.34599,0.35381 14.74599,0.10122 8.4,-0.2526 22.86594,-0.50916 32.14652,-0.57014 14.14553,-0.0929 17.14408,0.0709 18.54545,1.01346 1.99802,1.34383 1.25909,1.75221 11.498,-6.35459 z m 237.0911,-22.90909 c 2.9542,-3.4 6.04267,-6.96103 6.86328,-7.91341 l 1.492,-1.7316 -28.84403,0.38127 -28.84402,0.38127 -9.67983,7.89578 -9.67983,7.89579 29.91859,0.36363 c 16.45523,0.2 30.17278,0.61818 30.48346,0.92929 0.62217,0.62306 0.62407,0.62117 8.29038,-8.20202 z M 626.6176,763.18206 c -1.26182,-0.56224 -2.51228,-1.70932 -2.77881,-2.54907 -0.26653,-0.83975 -1.39712,-1.9987 -2.51243,-2.57545 -2.77697,-1.43603 -3.49169,-3.70537 -4.36025,-13.8445 -0.41119,-4.8 -4.68253,-53.65244 -9.49186,-108.56098 -4.80933,-54.90854 -8.74424,-101.15733 -8.74424,-102.77508 0,-1.61776 -0.33879,-3.5744 -0.75286,-4.34811 -0.50196,-0.93791 -0.51293,-1.85506 -0.0329,-2.75198 1.07598,-2.01049 37.07317,-27.74566 38.80937,-27.74566 0.82403,0 2.01491,0.4564 2.6464,1.01421 0.98334,0.86861 4.3646,0.80544 23.55197,-0.44001 21.39194,-1.38855 22.46766,-1.39642 23.81818,-0.17422 1.58488,1.4343 1.82616,3.26098 0.59353,4.49361 -0.60963,0.60963 -0.42248,1.32731 0.72727,2.78899 0.85147,1.08247 1.54813,2.94598 1.54813,4.14114 0,2.32453 15.73418,158.42954 16.40367,162.74724 0.26562,1.71307 0.93216,2.80514 1.99749,3.27273 1.0727,0.47083 1.6726,1.46296 1.82297,3.0149 l 0.22413,2.31313 15.77587,-0.36374 c 8.67673,-0.20006 29.68496,-0.63472 46.68496,-0.9659 22.55644,-0.43943 31.53959,-0.8588 33.24226,-1.55188 2.29136,-0.93271 2.39236,-0.88707 5.63636,2.54723 1.81676,1.92333 3.3032,3.30417 3.3032,3.06854 0,-0.37499 -23.68863,-80.88174 -36.72609,-124.81506 -2.5521,-8.6 -8.44778,-28.56364 -13.10153,-44.36364 -4.65374,-15.79999 -9.44761,-31.90654 -10.65305,-35.79233 -1.45272,-4.68288 -2.03579,-7.77497 -1.72928,-9.17051 0.59197,-2.69523 3.74499,-5.65682 6.67999,-6.27444 1.25852,-0.26484 2.858,-1.11112 3.55439,-1.88062 0.69639,-0.7695 2.28488,-1.57448 3.52996,-1.78882 3.65936,-0.62998 68.73794,-3.15434 70.48612,-2.73412 2.42811,0.58366 5.46663,3.75862 6.0183,6.28851 0.27122,1.24379 1.24121,3.15359 2.15554,4.24401 0.91433,1.09041 1.88337,3.05405 2.15342,4.36363 2.09003,10.13546 39.09821,175.53812 39.32792,175.77041 0.16232,0.16414 2.13364,-3.5995 4.38071,-8.36364 2.24706,-4.76414 9.41321,-19.78935 15.92478,-33.38935 28.8617,-60.2803 52.78433,-110.29286 59.66109,-124.72727 4.09714,-8.6 9.82764,-20.54545 12.73434,-26.54545 3.7895,-7.82217 5.4381,-12.10877 5.8263,-15.14872 0.6323,-4.95264 2.544,-7.44689 6.457,-8.42451 1.426,-0.35629 17.56738,-0.858 35.86968,-1.1149 29.5398,-0.41464 33.5504,-0.33728 35.7129,0.68888 4.3212,2.05053 4.6873,3.90404 2.7521,13.93191 -0.4017,2.08123 -9.0428,22.15265 -19.4125,45.09091 -10.2788,22.73703 -21.6325,47.88551 -25.2305,55.88551 -3.598,8 -17.7629,39.41818 -31.47748,69.81818 -13.7147,30.4 -32.16801,71.30909 -41.00739,90.90909 -8.83939,19.6 -16.67028,36.45454 -17.40198,37.45454 -0.73171,1 -2.77647,2.33948 -4.54393,2.97662 -1.76745,0.63713 -4.359,1.6635 -5.759,2.2808 -2.37835,1.04869 -16.88163,1.78584 -72.4227,3.681 -3.59488,0.12267 -5.17822,-0.23134 -8.45909,-1.89131 -2.22001,-1.12323 -4.70354,-2.75923 -5.51896,-3.63558 -0.9877,-1.06151 -4.46904,-11.74853 -10.42982,-32.01751 -4.92099,-16.7333 -9.06079,-30.08355 -9.19956,-29.66724 -0.20591,0.61771 2.21343,27.17832 3.89266,42.7354 l 0.40315,3.7349 -7.35579,9.22085 c -6.10113,7.64806 -7.6468,9.18271 -9.0619,8.99727 -0.93836,-0.12297 -2.31076,0.30171 -3.04977,0.94373 -0.73902,0.64202 -3.47094,1.87663 -6.07094,2.74359 -4.33759,1.44635 -10.90221,1.90319 -79.63636,5.54195 -41.2,2.18112 -77.2,4.13324 -80,4.33805 -3.51431,0.25706 -5.8014,0.0558 -7.38513,-0.64986 z m 83.42835,-16.78296 c 40.17623,-2.19767 74.13337,-3.99767 75.46033,-4 1.98368,-0.003 2.33941,-0.235 2.00073,-1.30209 -0.22656,-0.71381 -1.21338,-8.93313 -2.19295,-18.26514 -0.97956,-9.33202 -1.8998,-17.08608 -2.04497,-17.23125 -0.14517,-0.14518 -22.92076,0.76463 -50.61242,2.02179 l -50.34847,2.28575 -1.97092,-1.4673 c -2.82746,-2.10499 -3.52808,-4.61137 -2.31583,-8.28455 0.93625,-2.83685 0.27859,-8.45548 -10.0163,-85.57344 -6.06008,-45.39549 -11.16014,-82.67906 -11.33346,-82.85237 -0.47803,-0.47804 -43.69724,3.42542 -44.18245,3.99045 -0.23243,0.27065 0.16913,7.03755 0.89234,15.03755 2.55094,28.21791 17.34843,197.64409 17.34843,198.63358 0,0.69706 0.9555,1.00278 3.13413,1.00278 1.72377,0 36.00559,-1.7981 76.18181,-3.99576 z m 96.88185,-10.78367 4.79622,-6.05215 -2.07853,-20.55967 c -1.1432,-11.30782 -2.21677,-20.6979 -2.38571,-20.86685 -0.16895,-0.16894 -2.38584,2.64274 -4.92643,6.24819 -2.54059,3.60545 -4.87657,6.55536 -5.19106,6.55536 -0.3145,0 -0.39252,2.04546 -0.17338,4.54546 1.93038,22.02266 3.88886,36.18181 5.00465,36.18181 0.0869,0 2.31631,-2.72346 4.95424,-6.05215 z m 81.25674,-0.18143 c 16.6,-0.6174 30.37678,-1.34924 30.61506,-1.6263 0.23829,-0.27706 5.26861,-11.30375 11.1785,-24.50375 5.90989,-13.2 20.73293,-46.09091 32.9401,-73.09091 12.20722,-26.99999 24.89472,-55.14545 28.19462,-62.54545 3.2998,-7.4 15.32708,-34.07272 26.72728,-59.27272 11.4002,-25.2 23.0316,-50.98626 25.8476,-57.3028 l 5.12,-11.48462 -23.7661,0.48121 c -16.0682,0.32534 -24.0406,0.74733 -24.6133,1.3028 -0.46598,0.45188 -3.93968,7.36705 -7.71938,15.36705 -3.7798,8 -10.6399,22.4 -15.2449,32 -4.6049,9.6 -13.61684,28.41818 -20.02651,41.81818 -6.40968,13.39999 -15.96468,33.36363 -21.23333,44.36363 -5.26866,11 -13.00365,27.2 -17.18888,36 -23.32344,49.04068 -25.35238,53.01639 -27.95957,54.78676 -2.14787,1.45847 -3.20664,1.66448 -7.38123,1.4362 -5.63679,-0.30824 -7.84684,-1.81343 -9.17516,-6.24889 -0.44495,-1.48574 -9.97081,-43.77407 -21.16858,-93.97407 -11.19778,-50.2 -20.81201,-93.23636 -21.36496,-95.63636 l -1.00537,-4.36364 -4.29704,0.17053 c -2.36337,0.0938 -13.95158,0.50856 -25.75158,0.92169 -26.04652,0.91193 -30.54545,1.27496 -30.54545,2.46475 0,0.49265 2.75146,10.20296 6.11434,21.57847 3.36289,11.37551 9.44501,31.97365 13.51583,45.77365 4.07081,13.8 9.47913,32.12727 12.01849,40.72727 2.53936,8.6 8.91596,30.2 14.17024,48 5.25427,17.8 14.11332,47.80765 19.68676,66.68366 5.57345,18.87602 10.44298,35.1339 10.82117,36.12863 0.66281,1.74331 0.87932,1.79702 5.99858,1.48808 2.92102,-0.17627 18.89277,-0.82565 35.49277,-1.44305 z M 743.98141,693.67443 c 31.07611,-1.44307 47.31549,-1.93712 48.5274,-1.47636 1.58982,0.60445 2.05497,0.38637 3.65768,-1.7149 1.00993,-1.32409 1.8367,-2.70381 1.83726,-3.06605 5.8e-4,-0.36957 -4.22854,-0.57703 -9.63636,-0.4727 -5.30057,0.10227 -26.64116,0.50084 -47.42355,0.88573 l -37.78615,0.6998 -3.65973,3.65972 c -2.01285,2.01286 -3.33636,3.65836 -2.94112,3.65668 0.39524,-0.002 21.7363,-0.97904 47.42457,-2.17192 z m -44.49944,-14.54811 c -0.20707,-1.0023 -4.1522,-39.13146 -8.76695,-84.73146 -4.61475,-45.59999 -8.54182,-83.33746 -8.72682,-83.86104 -0.21776,-0.61631 -3.1249,1.30691 -8.24512,5.45455 l -7.90876,6.4065 1.69116,1.57438 c 0.93013,0.8659 1.87054,2.33863 2.08979,3.27272 0.47465,2.02221 21.47737,159.76479 21.47796,161.31194 2.2e-4,0.58748 1.97249,-0.88336 4.38282,-3.26854 3.59782,-3.56028 4.315,-4.66294 4.00592,-6.15905 z M 636.18455,519.84941 c 8.8,-0.79055 17.5268,-1.44122 19.39288,-1.44595 3.15995,-0.008 3.9475,-0.44548 11.47136,-6.37223 6.26814,-4.93758 7.74209,-6.41659 6.57735,-6.59994 -0.82562,-0.12996 -9.15714,0.27913 -18.51449,0.9091 -9.35736,0.62996 -17.77124,1.14622 -18.69751,1.14723 -1.29114,0.001 -17.44696,10.79129 -20.03894,13.38326 -0.68823,0.68824 2.75305,0.51079 19.80935,-1.02147 z M 512.18456,755.55969 c -15.88925,-3.51118 -28.3793,-10.79747 -40.55123,-23.65628 -35.60555,-37.6148 -35.58349,-103.21604 0.0469,-139.4291 11.03228,-11.21269 23.64417,-18.32189 37.95888,-21.39706 7.43001,-1.59615 21.34964,-1.62792 28.44758,-0.0649 28.24805,6.22037 51.76894,28.64826 61.95876,59.07958 9.3066,27.79365 7.23093,57.28252 -5.82049,82.69095 -10.79915,21.02373 -28.88224,36.30692 -49.69849,42.00343 -8.3391,2.28205 -23.83756,2.65267 -32.3419,0.77339 z m 25.30338,-12.86237 c 18.45736,-3.79336 34.57016,-16.47268 44.74663,-35.21155 11.04073,-20.33032 13.13866,-49.57859 5.24326,-73.09859 -4.21451,-12.5548 -12.64259,-25.87879 -21.64102,-34.21236 -8.62229,-7.98523 -17.51989,-12.832 -28.69714,-15.63216 -5.49369,-1.37629 -7.66898,-1.54578 -15.49131,-1.207 -10.28924,0.44562 -14.59083,1.56623 -23.73929,6.18434 -18.20796,9.1913 -31.5391,27.38532 -37.41031,51.05668 -2.20375,8.885 -2.74904,27.03531 -1.10245,36.69524 7.39033,43.35612 42.47037,72.74628 78.09163,65.4254 z m -46.12823,-48.97053 c -3.15293,-1.92256 -5.71105,-5.51537 -7.29174,-10.24102 -2.14712,-6.41909 -1.79844,-20.49533 0.78294,-31.6074 4.31062,-18.55598 11.15487,-32.18809 17.91598,-35.6844 2.70978,-1.40128 14.36796,-1.45398 17.6568,-0.0798 2.72492,1.13855 5.81045,4.54331 7.58387,8.36851 1.9802,4.27122 1.72712,21.79908 -0.4343,30.07931 -4.82001,18.46502 -14.65126,34.69986 -23.65143,39.05677 -3.99062,1.93183 -9.49357,1.97916 -12.56212,0.10805 z m 10.98731,-16.1913 c 7.59581,-8.44836 13.58656,-25.50476 13.74744,-39.14063 0.0496,-4.2 -0.14796,-8.21657 -0.43891,-8.92572 -0.49284,-1.20119 -0.7148,-1.21173 -3.24611,-0.15408 -3.66864,1.53285 -5.11454,2.96053 -6.75563,6.67048 -0.76287,1.72461 -2.251,3.87879 -3.30694,4.78707 -1.49727,1.2879 -2.30729,3.24915 -3.67974,8.90957 -3.11255,12.83702 -3.78911,22.89015 -2.01594,29.95502 0.63487,2.52953 1.97732,2.03418 5.69583,-2.10171 z m 536.01928,69.98371 c -3.217,-1.33064 -4.9886,-4.23194 -5.2447,-8.58885 -0.3074,-5.23132 -4.6175,-163.69644 -4.8015,-176.53548 -0.1509,-10.52561 0.4865,-12.48141 4.6271,-14.19651 1.5137,-0.62696 2.1464,-1.39158 2.1464,-2.59369 0,-2.72002 3.9505,-6.64852 7.2456,-7.20521 1.9973,-0.33745 7.5326,-3.68537 18.7047,-11.31329 8.7273,-5.95871 16.5642,-10.84281 17.4152,-10.85357 0.851,-0.0108 1.9547,0.47136 2.4527,1.07136 0.7899,0.95179 7.7981,1.09091 54.9552,1.09091 35.2487,0 54.2062,-0.25298 54.4993,-0.72727 0.6867,-1.11105 4.4345,-0.86549 5.4491,0.35703 0.6057,0.72984 0.7369,2.17117 0.4013,4.40903 -0.2771,1.8477 -0.191,3.70844 0.1937,4.18843 0.3808,0.47503 1.2755,12.36566 1.9882,26.42362 l 1.2958,25.55994 -1.755,2.20766 c -0.9652,1.21421 -5.6004,5.04295 -10.3004,8.50831 -6.7068,4.94503 -8.5454,6.66919 -8.5454,8.01357 0,1.10701 -0.9117,2.40832 -2.5775,3.67882 -3.0624,2.3358 -3.7694,2.41038 -41.3141,4.35763 -25.2264,1.30837 -25.3491,1.32247 -25.9818,2.98677 -0.3497,0.91971 -0.4394,2.65415 -0.1994,3.85432 l 0.4364,2.18213 h 13.0478 c 7.1763,0 13.6305,0.31184 14.3427,0.69297 2.3892,1.27871 3.5539,6.47925 4.3794,19.55604 0.438,6.93695 1.1189,13.21544 1.5132,13.95219 1.5156,2.83194 0.724,4.22993 -5.5615,9.82229 -7.3246,6.5168 -9.0703,7.364 -18.8125,9.12966 -6.4586,1.17056 -6.7435,1.28147 -2.5454,0.99079 2.6,-0.18003 23.4561,-1.35503 46.347,-2.61113 45.2271,-2.48174 43.8348,-2.5351 43.8348,1.67986 0,2.85037 9.4036,52.24232 10.2459,53.81622 1.3322,2.48922 0.011,7.8802 -1.9307,7.8802 -0.4982,0 -3.4036,2.75128 -6.4565,6.11396 -7.4111,8.16321 -9.196,8.89345 -17.8501,7.30305 -5.8946,-1.0833 -6.5697,-1.08269 -8.6785,0.008 -1.9624,1.01484 -11.5885,1.48626 -67.8992,3.32527 -71.1281,2.32291 -72.9095,2.35768 -75.0673,1.46515 z m 83.2728,-17.53548 c 50.0414,-1.51623 51.325,-1.59107 53.4545,-3.11665 1.7111,-1.2259 3.1649,-1.5485 6.7388,-1.49533 l 4.557,0.0678 -0.4029,-2.24961 c -0.2215,-1.23728 -1.4784,-8.87398 -2.793,-16.97044 -1.3145,-8.09645 -2.5414,-14.87219 -2.7264,-15.05719 -0.185,-0.185 -18.8152,0.46222 -41.4004,1.43826 -51.6345,2.23144 -55.1926,2.25395 -57.5948,0.36441 -3.4066,-2.67967 -3.647,-4.43071 -2.4635,-17.94608 0.5946,-6.79088 1.4521,-13.14574 1.9056,-14.1219 1.6357,-3.52097 3.7396,-4.26828 18.3412,-6.51462 7.7111,-1.1863 14.2657,-2.1597 14.5657,-2.16311 0.6619,-0.008 0.7034,-5.86221 0.069,-9.70371 l -0.4607,-2.78841 -14.7886,0.24296 -14.7886,0.24295 -2.3791,-2.37643 c -2.2514,-2.24894 -2.3785,-2.65861 -2.3695,-7.63636 0.02,-10.93782 0.6388,-25.69854 1.1575,-27.60544 0.7024,-2.58157 6.2847,-9.04268 8.6355,-9.99474 1.39,-0.56299 62.317,-4.38702 69.8968,-4.38702 1.3336,0 1.3916,-0.75982 1.3916,-18.23436 v -18.23437 l -8.1818,0.41618 c -4.5,0.22889 -29.2909,0.75358 -55.0909,1.16598 -25.8,0.41239 -48.2432,0.91482 -49.8737,1.11652 l -2.9645,0.36671 0.2583,9.61075 c 0.142,5.28592 1.058,40.53803 2.0355,78.33803 0.9775,37.8 1.9864,73.43958 2.2419,79.19907 l 0.4645,10.4718 10.6462,-0.44606 c 5.8555,-0.24533 33.719,-1.14515 61.919,-1.99959 z m 86.9192,-7.9525 c -0.1632,-0.6 -2.3068,-11.72727 -4.7635,-24.72727 -2.4567,-13 -4.6123,-23.78364 -4.7901,-23.96364 -0.1778,-0.18 -1.4919,0.8414 -2.9203,2.26977 -2.208,2.20805 -2.4783,2.81882 -1.8046,4.07773 0.4358,0.81438 2.4438,11.5748 4.4622,23.91205 2.0183,12.33725 3.8498,23.24942 4.07,24.24927 0.3929,1.78377 0.4534,1.75646 3.2217,-1.45455 1.5517,-1.79985 2.6878,-3.76336 2.5246,-4.36336 z m -57.4662,-45.85837 c 32.7212,-1.36083 34.9975,-1.54168 36.3434,-2.8876 1.8114,-1.8114 6.3353,-1.8979 -40.5073,0.77453 -28.9106,1.64939 -38.9905,2.4565 -39.716,3.18015 -0.8106,0.80837 -0.1448,0.92108 4,0.67723 2.7348,-0.16091 20.6807,-0.94584 39.8799,-1.74431 z m -50.544,-4.70186 c 0,-0.70801 -0.7375,-1.07613 -2.1562,-1.07613 -2.1846,0 -3.6619,1.60036 -3.6619,3.96697 0,0.99805 0.392,0.9535 2.9091,-0.33061 1.6,-0.81626 2.909,-1.96836 2.909,-2.56023 z m 33.7297,-30.10653 c -0.255,-5.36673 -0.6666,-11.33829 -0.9148,-13.27014 l -0.4513,-3.51246 -2.4392,1.48724 c -1.9274,1.17517 -2.3485,1.82319 -2.0069,3.08832 0.2377,0.88059 0.8226,6.89441 1.2999,13.36405 l 0.8677,11.76297 2.054,-1.58115 2.0541,-1.58116 z m -12.9596,-18.58283 c 1.2692,-0.95996 0.5996,-1.07012 -6.631,-1.09091 -5.9745,-0.0172 -8.4059,0.25147 -9.4546,1.04465 -1.2692,0.95996 -0.5996,1.07011 6.6311,1.09091 5.9744,0.0172 8.4059,-0.25148 9.4545,-1.04465 z m -21.8271,-4.92927 c 2.9668,-2.09116 3.3013,-2.59973 2.9304,-4.45454 -0.2304,-1.15163 -0.4188,-3.03477 -0.4188,-4.18477 0,-1.82537 -0.2695,-2.09091 -2.1223,-2.09091 -4.199,0 -4.4232,0.35416 -4.4232,6.9869 0,3.3572 0.1541,6.104 0.3424,6.104 0.1883,0 1.8495,-1.0623 3.6915,-2.36068 z m 84.6787,-34.35544 c 3.9533,-2.99387 7.4034,-5.7922 7.6668,-6.21851 0.4101,-0.66344 -1.751,-48.68128 -2.2179,-49.28053 -0.3085,-0.39601 -17.4257,12.35479 -18.0512,13.44656 -0.4287,0.74825 -0.1278,1.41955 0.9859,2.19963 3.2996,2.31112 3.6311,4.65144 3.6311,25.63653 0,10.81284 0.1794,19.65972 0.3987,19.65972 0.2193,0 3.6333,-2.44953 7.5866,-5.4434 z m -67.3587,-46.49818 c 25.5445,-0.53391 47.0233,-0.81943 47.7305,-0.6345 0.8086,0.21147 4.0716,-1.7109 8.7926,-5.1802 l 7.5069,-5.51645 h -52.3909 -52.3909 l -7.5738,5.19063 c -4.1655,2.85484 -8.2193,5.63666 -9.0083,6.18182 -1.7837,1.23245 -3.6734,1.23381 57.3339,-0.0413 z m 109.1104,208.34114 c -4.7114,-2.70225 -7.5552,-6.03615 -7.5552,-8.85726 0,-3.80849 2.2334,-12.13907 3.7825,-14.10835 0.8247,-1.04842 2.2746,-2.20095 3.2221,-2.56118 1.537,-0.58438 1.723,-1.10753 1.7255,-4.85478 0,-4.44767 -5.5894,-133.47206 -7.9682,-183.83617 -0.7746,-16.4 -1.2264,-30.70984 -1.0039,-31.79964 0.2224,-1.0898 1.1909,-2.83006 2.1521,-3.86724 0.9613,-1.03717 2.1941,-2.9542 2.7398,-4.26006 0.5456,-1.30586 1.8667,-3.06235 2.9358,-3.9033 2.1741,-1.71014 2.2315,-1.71834 26.7496,-3.82199 26.2193,-2.2496 29.7039,-1.24864 30.2657,8.69393 l 0.2857,5.05706 5.9203,-3.70583 c 13.7161,-8.58566 25.0885,-15.40923 28.8482,-17.30925 8.2622,-4.17541 25.6081,-8.65343 39.4276,-10.17862 12.741,-1.40616 25.7045,0.91578 37.1248,6.64956 7.9543,3.99362 10.9098,6.10605 16.435,11.74704 8.6864,8.86823 16.1807,21.83254 19.0071,32.88016 1.9218,7.51129 2.1826,28.86442 0.4589,37.5663 -4.5099,22.76724 -15.5078,40.43124 -31.745,50.98622 -10.3908,6.75454 -16.1529,9.03681 -35.0631,13.88775 -3.4847,0.89392 -6.5479,1.83739 -6.8071,2.09661 -0.2592,0.25922 12.5144,21.59783 28.3858,47.41913 15.8715,25.82131 29.1441,47.9483 29.4948,49.17111 0.8317,2.89987 -1.5919,9.74767 -4.4014,12.43608 -2.3672,2.26517 -3.1701,2.34292 -37.0635,3.58891 -15.7493,0.57897 -22.0154,0.57279 -23.5634,-0.0233 -1.1598,-0.44658 -3.7082,-2.15107 -5.663,-3.78776 -3.0875,-2.58498 -4.5027,-4.85039 -10.7758,-17.24936 -7.3462,-14.52006 -10.741,-20.81914 -23.7624,-44.09175 -4.0286,-7.2 -8.8294,-16.09312 -10.6685,-19.76248 -1.839,-3.66937 -3.6076,-6.83465 -3.9301,-7.03397 -0.3225,-0.19932 -0.3482,2.63925 -0.057,6.30793 0.2912,3.66869 1.6924,21.88852 3.1138,40.48852 3.2729,42.82624 2.8161,39.55005 5.6339,40.40152 6.6171,1.99949 6.8597,12.02759 0.3403,14.06226 -2.5629,0.79986 -10.8111,1.30749 -31.395,1.93216 -7.6,0.23064 -19.2182,0.7222 -25.8182,1.09234 -16.7555,0.9397 -16.6216,0.94905 -20.8084,-1.45235 z m 47.1945,-15.03553 c 6.3124,-0.26661 11.6216,-0.71865 11.7983,-1.00455 0.1767,-0.28589 -1.1288,-18.97464 -2.9011,-41.53055 -1.7722,-22.55592 -3.4469,-44.5144 -3.7215,-48.79663 l -0.4991,-7.78589 2.5778,-2.57775 c 2.6999,-2.69994 5.7316,-3.3542 8.551,-1.84534 1.0828,0.57954 1.7491,0.35183 3.1918,-1.09091 2.3034,-2.30343 6.2562,-2.43798 9.2384,-0.31448 1.1655,0.82986 3.0408,3.36622 4.1674,5.63636 2.5308,5.09958 13.021,23.56655 18.6632,32.8548 6.6418,10.93372 13.5939,23.5658 19.8948,36.14902 4.8991,9.78373 6.1741,11.77744 8.0217,12.54271 2.3274,0.96403 4.4494,3.58509 4.4494,5.49575 0,1.02109 1.4647,1.09478 13.2727,0.66779 7.3,-0.26398 16.2373,-0.68713 19.8607,-0.94034 l 6.5879,-0.46039 -28.1806,-45.81818 c -15.4994,-25.2 -28.3971,-46.86425 -28.6616,-48.14279 -0.6723,-3.24981 0.4703,-6.14947 3.0961,-7.85721 1.23,-0.8 2.7715,-2.65069 3.4255,-4.11265 1.5138,-3.38431 3.4123,-4.60379 8.8103,-5.65929 2.3839,-0.46614 7.4435,-1.79307 11.2435,-2.94874 3.8,-1.15566 8.7091,-2.60316 10.9091,-3.21667 4.898,-1.36588 14.6943,-7.34004 20.0251,-12.21209 10.7325,-9.80892 17.8877,-27.0056 18.8966,-45.41566 0.5758,-10.50593 -0.4419,-19.84921 -2.797,-25.67992 -5.4895,-13.59059 -14.2748,-23.9849 -24.507,-28.99534 -14.2008,-6.95376 -26.2668,-7.51468 -47.4074,-2.20385 -13.224,3.32208 -15.9572,4.59023 -40.9375,18.99424 -6.7572,3.8963 -9.8295,6.20223 -13.6099,10.21517 l -4.8826,5.18289 -4.3719,0.026 c -3.8247,0.0227 -4.6246,-0.22624 -6.3902,-1.98858 -1.9495,-1.94599 -2.0265,-2.31355 -2.2626,-10.80324 l -0.2445,-8.78871 -3.7555,0.43256 c -2.0656,0.2379 -9.6465,0.94816 -16.8465,1.57835 -7.2,0.63019 -13.274,1.36973 -13.4979,1.64341 -0.2238,0.27369 -0.127,7.04308 0.2151,15.04308 0.3421,8 2.5608,58.89348 4.9304,113.09663 2.3696,54.20315 4.1052,99.32815 3.8568,100.27778 l -0.4515,1.72658 9.3827,-0.44429 c 5.1604,-0.24436 14.5473,-0.66243 20.8596,-0.92904 z m 43.0685,-135.31319 c -6.013,-1.3472 -18.8063,-6.95427 -21.6071,-9.47 -0.8011,-0.71956 -1.8985,-0.95247 -3.0848,-0.65472 -2.8684,0.71992 -6.5176,-1.19399 -7.9228,-4.15524 -1.0921,-2.30145 -1.1646,-4.22384 -0.6507,-17.26069 l 0.5784,-14.6708 2.0204,-1.73788 c 1.3575,-1.16762 2.9199,-1.73787 4.7618,-1.73787 2.1402,0 3.6665,-0.71832 6.959,-3.27502 10.5235,-8.17165 17.2627,-10.89064 25.7722,-10.39803 4.6554,0.2695 6.3998,0.76501 10.7612,3.05686 6.2962,3.30858 12.9606,9.19434 17.3064,15.28435 5.1831,7.26352 6.5729,12.47937 5.1566,19.35237 -2.3372,11.3414 -13.5647,20.16484 -31.4939,24.75036 -5.633,1.44068 -6.0277,1.48294 -8.5567,0.91631 z m 7.4044,-16.93355 c 9.7316,-3.05109 16.2744,-7.59029 17.399,-12.0708 0.5846,-2.32919 -2.1312,-6.8529 -7.1084,-11.84066 -7.4467,-7.46248 -12.3624,-9.01033 -19.1208,-6.02075 -4.9584,2.19332 -12.576,7.81161 -13.7995,10.17773 -0.5734,1.10872 -1.555,2.44118 -2.1813,2.96103 -0.7973,0.66166 -1.1389,2.22737 -1.1389,5.21976 0,3.75768 0.172,4.27458 1.4226,4.27458 0.7824,0 3.1551,1.02916 5.2727,2.28702 3.8369,2.27912 12.6499,6.28202 14.032,6.3734 0.4,0.0264 2.7502,-0.58614 5.2226,-1.36131 z"
       id="path1" />
  </g>
</svg>
