<?xml version="1.0" encoding="UTF-8" standalone="no"?>
<!-- Created with Inkscape (http://www.inkscape.org/) -->

<svg
   version="1.1"
   id="svg1"
   width="122.4689"
   height="204.89377"
   viewBox="0 0 122.4689 204.89377"
   sodipodi:docname="darkSwitch.svg"
   inkscape:version="1.4.2 (f4327f4, 2025-05-13)"
   xmlns:inkscape="http://www.inkscape.org/namespaces/inkscape"
   xmlns:sodipodi="http://sodipodi.sourceforge.net/DTD/sodipodi-0.dtd"
   xmlns="http://www.w3.org/2000/svg"
   xmlns:svg="http://www.w3.org/2000/svg">
  <defs
     id="defs1" />
  <sodipodi:namedview
     id="namedview1"
     pagecolor="#ffffff"
     bordercolor="#000000"
     borderopacity="0.25"
     inkscape:showpageshadow="2"
     inkscape:pageopacity="0.0"
     inkscape:pagecheckerboard="0"
     inkscape:deskcolor="#d1d1d1"
     inkscape:zoom="2.2265625"
     inkscape:cx="61.978947"
     inkscape:cy="106.21754"
     inkscape:window-width="1920"
     inkscape:window-height="1057"
     inkscape:window-x="-8"
     inkscape:window-y="-8"
     inkscape:window-maximized="1"
     inkscape:current-layer="g1" />
  <g
     inkscape:groupmode="layer"
     inkscape:label="Image"
     id="g1"
     transform="translate(-226.76555,-89.553118)">
    <path
       style="fill:#f42734"
       d="m 302.86642,294.17425 c -1.496,-0.11394 -3.656,-0.43993 -4.8,-0.72442 -4.01461,-0.99833 -7.86686,-1.83936 -10.72,-2.34041 -1.584,-0.27817 -3.456,-0.64856 -4.16,-0.82309 -0.704,-0.17453 -2.17952,-0.52139 -3.27894,-0.77079 -1.09941,-0.2494 -2.82741,-0.86798 -3.84,-1.37462 -1.01258,-0.50664 -2.40735,-1.1048 -3.09948,-1.32924 -0.69213,-0.22444 -1.90963,-0.82106 -2.70554,-1.32581 -0.79592,-0.50476 -2.26529,-1.1473 -3.26528,-1.42789 -2.00915,-0.56373 -3.17924,-1.48111 -4.65062,-3.64618 -1.52444,-2.24313 -1.76167,-3.29573 -2.05548,-9.12 -0.15093,-2.992 -0.4281,-7.024 -0.61594,-8.96 -0.86795,-8.94574 -0.99771,-10.42051 -1.15436,-13.12 -0.20876,-3.59744 -1.05672,-6.47556 -2.8779,-9.768 -0.77905,-1.40842 -1.41646,-2.66999 -1.41646,-2.80347 0,-0.5643 -2.08363,-2.70233 -3.62031,-3.71485 -1.98258,-1.30632 -4.53698,-2.10953 -6.75777,-2.12492 -1.8078,-0.0125 -5.11912,-0.65392 -6.10192,-1.18192 -0.352,-0.18911 -1.10824,-0.85844 -1.68053,-1.4874 -0.5723,-0.62895 -1.5083,-1.3802 -2.08,-1.66944 -1.61745,-0.81829 -5.32956,-4.89402 -5.65093,-6.20447 -1.31775,-5.3733 -1.88306,-15.83651 -1.33156,-24.64553 0.21213,-3.38833 0.19437,-8.0672 -0.056,-14.76594 -0.52387,-14.01422 -0.0927,-16.82851 3.66968,-23.95406 2.166,-4.10214 3.9922,-6.32474 13.16108,-16.01792 0.592,-0.62586 1.60943,-2.31853 2.26094,-3.76149 l 1.18458,-2.62357 -0.0391,-5.35851 c -0.0215,-2.94718 -0.0659,-9.60651 -0.0986,-14.79851 l -0.0595,-9.44 1.23428,-3.58621 c 0.91318,-2.653223 1.51856,-3.878916 2.32699,-4.711332 1.42903,-1.471422 5.40169,-3.382371 7.03231,-3.382714 0.68553,-1.44e-4 2.25442,-0.209948 3.48642,-0.46623 1.232,-0.256283 4.08867,-0.615496 6.34815,-0.798251 2.25948,-0.182755 4.24472,-0.416688 4.41164,-0.519851 0.16693,-0.103164 2.06226,-0.327001 4.21185,-0.497417 2.1496,-0.170416 5.27636,-0.442758 6.94836,-0.605204 14.3717,-1.396307 23.42596,-0.898252 27.31804,1.502706 1.90074,1.17254 5.26034,4.528852 6.0304,6.024509 0.36246,0.704 0.99361,1.680239 1.40256,2.169414 0.40894,0.48918 0.84227,1.42518 0.96296,2.08 0.12068,0.65482 0.43085,1.76658 0.68927,2.47058 0.31832,0.8672 0.59713,3.96325 0.86453,9.6 l 0.39468,8.32 1.34008,4.06275 c 1.20947,3.66682 1.47418,4.18137 2.71626,5.28 0.7569,0.66949 1.92182,1.97951 2.58871,2.91116 0.67068,0.93694 1.74867,1.96743 2.41227,2.30597 0.65985,0.33663 1.54185,1.01439 1.95999,1.50613 1.15428,1.35746 3.9108,3.26449 7.2964,5.04785 3.28093,1.72822 4.26397,2.75967 4.64948,4.87849 0.12085,0.66421 0.5632,1.94137 0.983,2.83813 0.4198,0.89677 0.92028,2.61334 1.11218,3.81461 0.19191,1.20127 0.41995,2.29906 0.50676,2.43952 0.0868,0.14047 0.29594,1.9519 0.46473,4.02539 0.29588,3.63484 0.45846,5.08407 1.42809,12.73 0.53346,4.20649 1.29806,35.57354 1.03354,42.4 -0.22036,5.68683 -0.8332,8.13743 -3.24104,12.96 -2.91721,5.84277 -4.9608,7.91954 -9.2975,9.44843 -3.01222,1.06195 -6.52361,2.86479 -7.16304,3.6777 -0.61599,0.7831 -0.64086,1.43032 -0.76552,19.92163 -0.11023,16.35149 -0.20107,19.29855 -0.62886,20.40202 -0.82338,2.12383 -3.3695,5.79647 -5.64259,8.13913 -2.89424,2.98282 -3.77107,3.22916 -11.23346,3.1559 -3.09206,-0.0303 -6.84592,-0.14841 -8.34192,-0.26236 z m 15.08157,-1.56631 c 2.14919,-0.67534 4.43317,-2.97159 7.03833,-7.07614 2.50819,-3.95177 2.35313,-2.41077 2.37453,-23.59901 0.0186,-18.46801 0.0358,-18.98184 0.66223,-19.84 0.70688,-0.96839 4.80825,-3.27243 7.32334,-4.11407 4.43815,-1.48517 6.57337,-3.54481 9.17935,-8.85451 2.95271,-6.01615 3.46455,-8.93729 3.29278,-18.79241 -0.24781,-14.2183 -1.10925,-35.43015 -1.58545,-39.04 -0.267,-2.024 -0.62211,-5.41361 -0.78914,-7.53246 -0.33696,-4.27475 -1.46917,-10.5179 -2.08692,-11.50754 -0.21972,-0.352 -0.64726,-1.504 -0.9501,-2.56 -0.78314,-2.73085 -1.19013,-3.21641 -3.7876,-4.51878 -3.01685,-1.51265 -6.4289,-3.80437 -7.52809,-5.05627 -0.48101,-0.54784 -1.53167,-1.38116 -2.33481,-1.85183 -0.80314,-0.47068 -1.86657,-1.47617 -2.36317,-2.23444 -0.49661,-0.75827 -1.72784,-2.17068 -2.73608,-3.13868 -1.75057,-1.6807 -1.88445,-1.9258 -2.97158,-5.44 -1.71488,-5.54343 -1.78424,-6.02376 -1.94072,-13.44 -0.13014,-6.16819 -0.22995,-7.17504 -0.96467,-9.73176 -0.45072,-1.56847 -1.09447,-3.15247 -1.43054,-3.52 -0.33607,-0.36753 -0.90186,-1.244234 -1.25731,-1.948234 -0.81856,-1.621232 -3.81148,-4.690128 -5.59116,-5.73309 -2.46918,-1.447036 -4.8965,-1.821425 -13.03479,-2.010483 -5.2637,-0.122279 -7.90405,-0.06269 -8.8,0.198619 -1.17693,0.343252 -3.88693,0.633618 -12,1.285755 -3.01189,0.242099 -6.54524,0.692084 -10.56,1.344856 -1.144,0.186006 -3.09222,0.453136 -4.32938,0.593622 -4.94497,0.561527 -7.8968,1.695755 -9.50045,3.650512 -0.30241,0.368615 -1.07743,2.326203 -1.72227,4.350203 l -1.17243,3.68 0.21777,14.33698 0.21778,14.33697 -1.34611,2.94303 c -0.75889,1.65919 -1.84751,3.44691 -2.4955,4.09812 -9.38998,9.43651 -13.26036,14.79641 -15.58801,21.58709 l -0.86989,2.53781 -0.0398,23.09511 c -0.0381,22.11581 -0.0112,23.26239 0.63375,27.04 0.37045,2.16969 0.83075,4.23289 1.02289,4.58489 0.52789,0.9671 4.45331,4.64 4.959,4.64 0.24351,0 1.01198,0.5874 1.7077,1.30533 0.69572,0.71793 1.50925,1.43889 1.80786,1.60212 0.76603,0.41875 5.28741,1.25175 6.81708,1.25596 2.67682,0.007 5.95325,1.56898 8.34209,3.97604 1.24865,1.25816 4.40864,7.12982 5.37693,9.99099 0.55843,1.65009 0.79234,3.25393 0.94937,6.50956 0.20248,4.19771 0.46693,7.15598 1.20146,13.44 0.19543,1.672 0.45729,5.34998 0.5819,8.17329 0.19326,4.3786 0.3325,5.3521 0.9471,6.6217 1.0933,2.25846 2.85186,3.89748 4.70524,4.38541 0.86675,0.22818 2.37233,0.89127 3.34573,1.47353 0.9734,0.58225 2.1974,1.16214 2.72,1.28864 0.5226,0.12649 1.88618,0.69519 3.03018,1.26378 1.144,0.56858 2.584,1.12985 3.2,1.24725 0.616,0.1174 2.2,0.48813 3.52,0.82384 1.32,0.33571 3.48,0.77546 4.8,0.97722 1.32,0.20177 3.336,0.62566 4.48,0.94198 1.144,0.31632 2.82951,0.66658 3.74559,0.77836 0.91607,0.11177 2.26618,0.41512 3.00023,0.67411 0.73405,0.25899 2.21654,0.47919 3.29441,0.48933 1.07787,0.0101 2.53577,0.14495 3.23977,0.29957 1.73133,0.38026 10.5947,0.17279 12.04157,-0.28187 z m -27.84756,-7.95614 c -0.17086,-0.66 -0.6211,-2.7 -1.00054,-4.53334 -1.04552,-5.05175 -0.89007,-4.82666 -3.33322,-4.82666 h -2.07558 l -0.30683,1.2 c -0.16875,0.66 -0.62586,2.64 -1.0158,4.4 -0.79404,3.58393 -1.0366,4.04258 -1.75702,3.32216 -0.44054,-0.44054 -0.42103,-0.87792 0.19193,-4.3016 0.37529,-2.09615 0.60169,-4.30819 0.50312,-4.91564 -0.0986,-0.60745 -0.0255,-1.28974 0.16249,-1.5162 0.18794,-0.22646 0.60894,-1.97796 0.93555,-3.89223 0.32661,-1.91427 1.07233,-4.76209 1.65715,-6.32849 1.00229,-2.68454 1.11657,-2.848 1.99101,-2.848 1.14108,0 1.19084,0.15878 2.0991,6.69782 0.81161,5.84317 0.90866,6.26218 1.45044,6.26218 0.68834,0 0.8902,0.644 0.45609,1.45513 -0.34392,0.64263 -0.25489,1.33792 0.60226,4.70341 1.20205,4.71971 1.29788,6.32146 0.37817,6.32146 -0.45674,0 -0.71226,-0.32678 -0.93832,-1.2 z m -2.61255,-11.2 c -0.0531,-1.60566 -1.51494,-10.41014 -1.66029,-10 -0.0935,0.264 -0.48503,2.424 -0.86994,4.8 -0.38491,2.376 -0.77651,4.644 -0.87022,5.04 -0.16124,0.68133 -0.074,0.72 1.6243,0.72 1.50296,0 1.79168,-0.091 1.77615,-0.56 z m 18.83112,10.73454 c -0.98161,-1.5019 -1.92225,-3.59273 -2.96968,-6.60092 -1.86614,-5.3595 -1.59235,-4.92174 -2.68574,-4.29421 -1.18131,0.67797 -2.52232,0.29526 -3.20075,-0.91345 -0.73002,-1.30061 -0.2956,-1.88596 1.39964,-1.88596 1.42278,0 1.45164,-0.0202 1.25983,-0.88 -0.55379,-2.48244 -2.88111,-5.84 -4.04805,-5.84 -0.37928,0 -0.16071,11.23651 0.23809,12.24 0.1224,0.308 0.44018,0.56 0.70617,0.56 0.41125,0 0.45097,0.41891 0.26545,2.8 -0.28381,3.64253 -0.39272,3.98007 -1.24502,3.85865 -0.65058,-0.0927 -0.71593,-0.36994 -1.07917,-4.57865 -0.21266,-2.464 -0.48733,-6.712 -0.61038,-9.44 -0.16996,-3.76781 -0.33536,-5.042 -0.68815,-5.30115 -0.25543,-0.18763 -0.40908,-0.61963 -0.34146,-0.96 0.10441,-0.52548 0.39619,-0.61778 1.93384,-0.61177 1.53833,0.006 1.99464,0.15523 3.03184,0.99143 1.3865,1.11783 2.89975,3.82335 3.20014,5.72149 0.11141,0.704 0.52847,1.712 0.9268,2.24 0.39833,0.528 1.32581,2.71625 2.06106,4.86277 1.23422,3.60324 1.38287,3.87401 1.9369,3.52801 0.98688,-0.61631 1.37239,0.13404 1.39541,2.716 0.0168,1.88079 -0.0759,2.33546 -0.49302,2.41919 -0.28252,0.0567 -0.7297,-0.22743 -0.99375,-0.63143 z m -37.52408,-3.85454 c -1.04948,-0.9135 -1.13149,-1.49546 -1.35278,-9.6 -0.14329,-5.24785 -0.27124,-6.64 -0.61029,-6.64 -0.63969,0 -1.48955,-1.86129 -1.26264,-2.76535 0.10718,-0.42703 0.55089,-0.93863 0.98604,-1.1369 0.49526,-0.22565 0.79117,-0.62583 0.79117,-1.06993 0,-0.80993 0.76797,-1.58427 1.26598,-1.27648 0.18371,0.11354 0.33402,0.61246 0.33402,1.10872 0,0.71085 0.21438,0.99109 1.01038,1.32081 1.33317,0.55222 5.62615,3.342 6.79009,4.41253 2.55125,2.34649 3.21431,6.91155 1.51735,10.4466 -0.50692,1.056 -1.44319,2.51934 -2.0806,3.25187 -2.19776,2.52571 -5.67258,3.44189 -7.38872,1.94813 z m 4.89976,-1.83931 c 1.65458,-1.19857 3.41729,-3.83784 3.91902,-5.86788 0.63569,-2.57204 -0.0293,-4.74266 -2.06775,-6.74926 -1.55622,-1.53193 -5.86115,-4.34355 -6.65048,-4.34355 -0.26506,0 -0.30374,1.6562 -0.14385,6.16 0.28754,8.09975 0.40492,8.958 1.191,8.70851 1.04331,-0.33113 1.16557,0.80323 0.16511,1.53202 -0.68259,0.49723 -0.78539,0.72127 -0.49274,1.07389 0.6524,0.7861 2.62891,0.53721 4.07969,-0.51373 z m 35.27341,-0.60021 c -0.18792,-0.35112 -0.34167,-1.48185 -0.34167,-2.51273 0,-1.03088 -0.23658,-3.59635 -0.52572,-5.70104 -0.68054,-4.95357 -0.76634,-12.00005 -0.1551,-12.73712 0.4836,-0.58315 1.49391,-0.70619 1.79523,-0.21863 0.10571,0.17103 -0.0516,0.683 -0.34952,1.13772 -0.47088,0.71864 -0.51432,1.39982 -0.33221,5.20904 0.17872,3.73847 0.71179,7.73236 0.81456,6.10296 0.0468,-0.74114 4.40098,-4.7756 6.1452,-5.69389 1.41258,-0.7437 2.52756,-0.7539 2.52756,-0.0231 0,0.57321 -2.81198,3.39155 -4.64022,4.6507 l -1.71896,1.18389 3.07217,3.50878 c 1.68969,1.92983 3.4085,3.63666 3.81959,3.79295 0.8329,0.31667 1.02672,1.49292 0.29243,1.77469 -0.79883,0.30654 -1.67697,-0.43445 -5.02522,-4.24039 -3.81317,-4.3344 -3.72508,-4.3556 -4.07287,0.98007 -0.20938,3.21216 -0.61448,4.07685 -1.30525,2.78612 z m -20.82167,-33.59379 c -3.14272,-0.75294 -6.59985,-2.42748 -7.25716,-3.51518 -0.28302,-0.46833 -0.78194,-1.24168 -1.10871,-1.71855 -0.77208,-1.12674 -0.75278,-1.63303 0.22834,-5.98839 0.72977,-3.23956 0.81092,-4.21319 0.72,-8.63784 -0.0564,-2.7427 0.0245,-6.12431 0.17962,-7.51468 l 0.28209,-2.52795 -2.42454,0.2197 c -2.13565,0.19353 -2.46106,0.15158 -2.73104,-0.35205 -0.16857,-0.31446 -5.07634,-7.25614 -10.90615,-15.42595 -8.88918,-12.45717 -10.55954,-14.96808 -10.35105,-15.55997 0.13673,-0.38817 3.4886,-6.20346 7.4486,-12.92285 6.7843,-11.51172 7.24619,-12.20773 8,-12.05506 0.44,0.0891 7.424,-0.41748 15.52,-1.12578 15.2267,-1.33215 17.91643,-1.40493 18.52795,-0.50136 0.19363,0.28609 3.88005,5.57058 8.19205,11.74332 4.312,6.17273 7.92562,11.39702 8.03026,11.60952 0.10465,0.21251 0.3629,0.71844 0.5739,1.1243 0.34146,0.65679 -0.0801,1.76495 -3.83474,10.08 -2.32011,5.13814 -5.34903,11.86208 -6.73092,14.94208 -1.3819,3.08 -2.63643,5.816 -2.78785,6.08 -0.19836,0.34584 -1.20538,0.55888 -3.60298,0.76223 -1.83022,0.15523 -3.37099,0.31855 -3.42394,0.36294 -0.053,0.0444 0.18928,1.21339 0.53829,2.59777 0.34902,1.38438 0.93025,4.38906 1.29164,6.67706 1.08947,6.89766 1.26087,7.8769 1.93244,11.04 0.51749,2.43741 0.57539,3.25379 0.29212,4.11856 -0.40876,1.24786 -4.42567,5.60886 -5.86284,6.36505 -1.49694,0.78764 -7.66629,0.85837 -10.73538,0.12308 z m 9.49917,-1.34431 c 1.03603,-0.38829 4.32198,-3.50955 5.23294,-4.97067 0.58462,-0.93768 0.59208,-1.12527 0.14574,-3.66395 -0.25874,-1.47162 -0.60614,-3.11489 -0.772,-3.65172 -0.16586,-0.53682 -0.39137,-1.76804 -0.50113,-2.73604 -0.39519,-3.48535 -1.48879,-9.74828 -2.22877,-12.76396 -0.41513,-1.69182 -0.97587,-4.51604 -1.24607,-6.27604 -0.27021,-1.76 -0.98518,-4.784 -1.58884,-6.72 -0.60365,-1.936 -1.47891,-5.248 -1.94503,-7.36 -1.59125,-7.21005 -2.06868,-8.5299 -3.28622,-9.08465 -1.09201,-0.49756 -3.17307,-0.44249 -4.24602,0.11236 -0.90056,0.46569 -1.94377,2.43694 -1.94377,3.67292 0,0.33422 -0.21053,1.44731 -0.46785,2.47352 -0.83404,3.3263 -1.48884,9.39429 -1.77251,16.42585 -0.15266,3.784 -0.44969,7.96 -0.66006,9.28 -0.24897,1.56214 -0.30942,3.90815 -0.17317,6.72 0.18862,3.89239 0.12477,4.75235 -0.64509,8.6879 -0.46994,2.40234 -0.7599,4.56234 -0.64435,4.8 1.17723,2.42139 3.68799,4.09101 7.36602,4.8983 2.38532,0.52355 8.14019,0.61941 9.37618,0.15618 z m -17.75281,-29.93916 1.43568,-0.19678 0.20195,-5.32322 c 0.11108,-2.92777 0.49208,-7.48322 0.84669,-10.12322 0.3546,-2.64 0.64576,-4.82252 0.64703,-4.85004 10e-4,-0.0275 -0.26159,0.019 -0.5841,0.1033 -0.39354,0.10291 -0.93359,-0.2421 -1.6421,-1.04904 -3.42171,-3.89712 -2.9325,-9.27775 1.12455,-12.36821 7.05392,-5.37334 18.50394,-1.25681 18.50394,6.65256 0,2.45459 -0.90685,4.41535 -2.88573,6.23942 l -1.45388,1.34014 0.39095,2.12593 c 0.21502,1.16927 0.93176,3.85394 1.59276,5.96594 0.66099,2.112 1.3742,4.92 1.58491,6.24 0.68236,4.27462 0.32738,3.84059 3.13709,3.83563 3.17217,-0.006 3.80368,-0.19074 4.18754,-1.22769 0.17264,-0.46637 3.11552,-7.03994 6.53975,-14.60794 5.75752,-12.72491 6.19492,-13.82018 5.81465,-14.56 -0.22616,-0.44 -3.98799,-5.90292 -8.35962,-12.13983 -5.97177,-8.51979 -8.14737,-11.39094 -8.74842,-11.54533 -0.67944,-0.17453 -31.97421,2.39377 -32.15988,2.6393 -0.0357,0.0472 -3.12482,5.26778 -6.8647,11.60123 l -6.79978,11.51537 0.58571,1.12463 c 0.32214,0.61855 5.02138,7.35263 10.44276,14.96463 6.83352,9.59475 10.03642,13.84 10.44181,13.84 0.32161,0 1.23081,-0.0885 2.02044,-0.19678 z m 17.46596,-22.84322 c 0.74638,-0.84739 1.65341,-3.01186 1.66065,-3.96287 0.033,-4.33807 -4.27692,-7.87713 -9.59297,-7.87713 -7.8862,0 -12.20821,7.12611 -7.4236,12.24 0.45284,0.484 0.91734,0.88 1.03222,0.88 0.11489,0 0.39246,-1.044 0.61684,-2.32 0.22437,-1.276 0.5961,-2.77846 0.82605,-3.33879 0.88634,-2.15972 4.4252,-3.47223 7.02849,-2.60675 1.07683,0.358 1.44364,0.73029 2.311,2.34554 0.56705,1.056 1.03505,2.25223 1.04,2.6583 0.005,0.40606 0.1715,1.38364 0.37011,2.17239 0.35691,1.4174 0.36895,1.42743 1.03477,0.8617 0.37051,-0.31481 0.86391,-0.78839 1.09644,-1.05239 z m -41.9108,-60.53612 c -2.06523,-0.37493 -2.62019,-1.05477 -1.5611,-1.91237 0.89806,-0.7272 0.86947,-2.71008 -0.15189,-10.53477 -1.63138,-12.49808 -1.65267,-14.10762 -0.18937,-14.3213 0.39383,-0.0575 0.92414,0.0681 1.17845,0.27918 0.62312,0.51714 0.58627,1.80425 -0.062,2.16707 -0.47983,0.26852 -0.42544,1.07945 0.6396,9.5359 0.64022,5.08333 1.20021,10.10641 1.24443,11.16241 l 0.0804,1.92 2.72,-0.0676 c 1.496,-0.0372 3.224,-0.10917 3.84,-0.16 0.93515,-0.0772 1.12,0.0125 1.12,0.54329 0,0.39003 -0.37098,0.81472 -0.96,1.09897 -1.1906,0.57458 -5.46457,0.73107 -7.89848,0.28922 z m 11.01738,-5.86933 c -1.89777,-2.30232 -2.9434,-7.82771 -2.95304,-15.60459 -0.005,-4.09756 0.0645,-4.75705 0.52041,-4.93199 1.07,-0.4106 1.31094,0.68963 1.46944,6.70997 0.21283,8.08362 1.29412,12.38706 3.34748,13.32263 1.10506,0.5035 0.84852,1.44243 -0.42812,1.5669 -0.81915,0.0799 -1.17242,-0.1121 -1.95617,-1.06292 z m 9.0236,-0.4614 c -1.0728,-0.43448 -2.58458,-2.39101 -3.3897,-4.38692 -0.68458,-1.69711 -0.7528,-2.34469 -0.7528,-7.14623 0,-5.50334 0.49473,-8.35682 1.67828,-9.68 1.24965,-1.39706 3.39928,0.13987 3.21728,2.30028 -0.13201,1.56704 -1.09253,1.74815 -1.59697,0.30111 l -0.36554,-1.04859 -0.41672,1.20368 c -0.71165,2.05555 -1.10819,7.32153 -0.74496,9.89303 0.41047,2.906 1.8858,6.16801 3.02423,6.68672 1.24676,0.56806 2.39977,0.006 3.44073,-1.67794 1.14008,-1.84404 1.56311,-4.66044 0.74704,-4.9736 -0.74869,-0.2873 -1.96145,0.32123 -2.60862,1.30894 -0.50713,0.77398 -0.50583,0.85953 0.0219,1.44265 0.66168,0.73114 0.43479,1.60372 -0.41699,1.60372 -0.96644,0 -1.65964,-1.04192 -1.65964,-2.49453 0,-3.09188 4.57809,-5.13545 6.5711,-2.9332 0.44878,0.4959 0.52598,1.00826 0.39595,2.6281 -0.30458,3.79444 -2.86373,7.30088 -5.29818,7.25935 -0.65388,-0.0112 -1.48474,-0.14011 -1.84637,-0.28657 z m 21.02398,-2.99714 c -0.42975,-0.51782 -1.39875,-4.65399 -2.1497,-9.17601 -0.30689,-1.848 -0.58496,-3.39774 -0.61793,-3.44388 -0.033,-0.0461 -0.71623,0.20643 -1.51837,0.56125 l -1.45842,0.64513 1.11224,2.79875 c 1.3363,3.36255 1.56335,5.63039 0.57784,5.77156 -0.78009,0.11174 -1.7942,-0.91955 -3.76416,-3.82791 -1.84898,-2.72976 -2.12245,-3.86939 -1.22108,-5.08857 l 0.67367,-0.91118 -0.64028,-1.62442 c -0.35216,-0.89343 -0.64029,-2.26709 -0.64029,-3.05257 0,-1.22218 0.0937,-1.42816 0.65004,-1.42816 0.35753,0 0.69554,0.18 0.75114,0.4 0.51085,2.02122 1.64021,5.04 1.88553,5.04 0.16867,0 1.01017,-0.38288 1.86998,-0.85085 l 1.56331,-0.85086 v -1.83369 c 0,-2.4111 0.77254,-3.518539 2.04883,-2.93702 1.57688,0.71847 1.75395,2.61241 0.44752,4.78667 -0.61986,1.03163 -0.61936,1.04637 0.20111,5.83572 0.4524,2.64081 0.82254,4.90293 0.82254,5.02692 0,0.12399 0.19518,-0.0415 0.43373,-0.36772 0.2842,-0.38868 0.6306,-0.5176 1.00483,-0.374 0.49373,0.18946 0.54381,0.48035 0.36964,2.14675 -0.11081,1.06017 -0.35205,2.20895 -0.53609,2.55283 -0.38446,0.71837 -1.35002,0.82253 -1.86563,0.20126 z m -6.99506,-9.50099 c -0.15861,-0.60653 -0.73142,-1.22745 -0.73142,-0.79286 0,0.2721 0.63344,1.43784 0.7813,1.43784 0.0653,0 0.0429,-0.29024 -0.0499,-0.64498 z m 16.73239,7.28498 c -1.47684,-2.25783 -1.60442,-3.02803 -1.72275,-10.4 l -0.11429,-7.12 h -1.50938 c -0.83017,0 -1.68322,0.17383 -1.89568,0.38629 -0.30171,0.30171 -0.50478,0.26779 -0.92754,-0.15497 -0.428,-0.42801 -0.47529,-0.72644 -0.226,-1.426285 0.31133,-0.874004 0.345,-0.883689 2.70354,-0.777493 1.95258,0.08792 2.84537,-0.05047 4.89373,-0.758559 2.58795,-0.894615 3.26936,-0.812991 3.04261,0.364463 -0.0717,0.372162 -0.8152,0.857011 -2.06586,1.347143 l -1.95388,0.765721 -0.20416,2.41513 c -0.50847,6.01522 -0.0834,10.86489 1.19889,13.67982 0.4012,0.88069 0.66964,1.78069 0.59654,2 -0.21619,0.64856 -1.30774,0.45544 -1.81577,-0.32126 z"
       id="path4" />
  </g>
</svg>
