<?xml version="1.0" encoding="UTF-8" standalone="no"?>
<!-- Created with Inkscape (http://www.inkscape.org/) -->

<svg
   version="1.1"
   id="svg1"
   width="739.5979"
   height="476.07974"
   viewBox="0 0 739.59792 476.07975"
   sodipodi:docname="ES.svg"
   inkscape:version="1.4.2 (f4327f4, 2025-05-13)"
   xmlns:inkscape="http://www.inkscape.org/namespaces/inkscape"
   xmlns:sodipodi="http://sodipodi.sourceforge.net/DTD/sodipodi-0.dtd"
   xmlns="http://www.w3.org/2000/svg"
   xmlns:svg="http://www.w3.org/2000/svg">
  <defs
     id="defs1" />
  <sodipodi:namedview
     id="namedview1"
     pagecolor="#ffffff"
     bordercolor="#000000"
     borderopacity="0.25"
     inkscape:showpageshadow="2"
     inkscape:pageopacity="0.0"
     inkscape:pagecheckerboard="0"
     inkscape:deskcolor="#d1d1d1"
     inkscape:zoom="0.57403567"
     inkscape:cx="38.325144"
     inkscape:cy="450.32044"
     inkscape:window-width="1920"
     inkscape:window-height="1057"
     inkscape:window-x="-8"
     inkscape:window-y="-8"
     inkscape:window-maximized="1"
     inkscape:current-layer="g1" />
  <g
     inkscape:groupmode="layer"
     inkscape:label="Image"
     id="g1"
     transform="translate(-705.433,-293.67627)">
    <path
       style="fill:#000000"
       d="m 966.49011,769.44773 c -1.4,-0.18116 -10.23636,-1.46718 -19.63636,-2.85783 -25.75001,-3.80948 -30.38854,-4.3657 -65.81818,-7.89238 -42.28339,-4.20891 -47.78425,-4.58582 -80.36363,-5.50643 -15,-0.42385 -30.05454,-1.10213 -33.45454,-1.50728 -3.4,-0.40516 -12.4,-1.0023 -20,-1.327 -15.4898,-0.66176 -20.07099,-1.73796 -27.01295,-6.34577 -6.75794,-4.48566 -9.01663,-9.51568 -11.54821,-25.7174 -0.77685,-4.97172 -1.31378,-19.24705 -1.91482,-50.90909 -0.89558,-47.17757 -0.16125,-100.42606 1.9435,-140.92961 0.57622,-11.08871 1.5475,-29.81583 2.1584,-41.61583 1.74507,-33.7073 3.23798,-75.91903 3.65247,-103.27272 0.20911,-13.8 0.53542,-28.44055 0.72513,-32.53455 l 0.34493,-7.44363 -2.78854,-1.42261 c -6.97729,-3.55955 -9.3769,-9.93035 -5.48326,-14.55767 5.74071,-6.82245 18.95152,-10.39624 41.74153,-11.29193 16.86759,-0.66293 31.7491,-1.70215 52.36363,-3.65669 21.51926,-2.04032 64.57293,-5.63984 87.63636,-7.32687 9.08063,-0.66422 30.62504,-1.36007 49.81818,-1.60905 52.75089,-0.68429 49.82087,-0.74403 55.81594,1.13802 13.29151,4.17262 17.62351,15.60067 8.75561,23.09743 -3.4023,2.87628 -11.621,6.6149 -18.26224,8.3074 -9.20928,2.34695 -16.44686,2.93629 -36.10841,2.94025 -26.87946,0.005 -52.46429,1.52871 -116.01908,6.90766 -36.14546,3.05916 -51.53794,3.97325 -67.13991,3.98713 -10.95499,0.01 -11.83884,0.10839 -11.49833,1.28329 1.17024,4.03788 4.33758,19.72211 6.20519,30.72727 5.03422,29.66492 6.70621,43.4943 13.76078,113.81818 3.97547,39.62971 4.22186,41.44795 5.59722,41.30483 0.79128,-0.0823 14.85687,-0.51709 31.25687,-0.96611 35.018,-0.95877 56.46943,-2.2944 62.54545,-3.89429 5.12648,-1.34985 13.97602,-1.50993 19.41875,-0.35126 4.99332,1.063 21.54637,9.34747 24.42124,12.22234 1.22387,1.22387 2.44085,3.20697 2.7044,4.40688 2.12798,9.68867 -13.34507,18.14576 -37.08984,20.27217 -17.47979,1.56536 -56.66286,2.39394 -79.27272,1.67633 -12,-0.38086 -22.01481,-0.48308 -22.25513,-0.22714 -0.24032,0.25593 -0.0232,6.19261 0.48254,13.19261 3.81025,52.74062 4.02407,121.46288 0.43757,140.63662 l -1.34343,7.18209 6.61195,-0.46587 c 23.58248,-1.66158 44.35286,-2.67094 63.33922,-3.07805 41.5617,-0.89118 96.66858,2.57342 123.63636,7.77309 4,0.77124 9.4298,1.40324 12.06623,1.40445 5.34909,0.002 10.42665,1.29126 13.51742,3.43104 1.129,0.78159 3.5254,1.98504 5.3254,2.67433 7.842,3.00298 13.091,8.2185 13.091,13.00744 0,5.54533 -8.1112,11.12523 -20.36369,14.00876 -5.35395,1.26001 -25.8842,2.09883 -32,1.30745 z M 1143.2174,745.202 c -11.2647,-1.53618 -21.42,-5.49539 -28,-10.91632 -6.9451,-5.7217 -17.165,-16.1951 -18.6572,-19.12007 -5.8542,-11.47526 9.428,-21.38841 36.1345,-23.43937 8.1768,-0.62795 16.739,0.2641 42.7035,4.44906 33.3536,5.3759 45.0767,6.22797 63.3304,4.60303 26.6309,-2.37069 52.2242,-9.39732 71.6462,-19.67042 25.9071,-13.70331 45.8332,-35.0657 50.7896,-54.45063 1.5751,-6.16039 1.5382,-15.75043 -0.085,-22.18181 -3.6337,-14.3938 -14.9417,-31.83526 -31.5211,-48.61797 -19.8028,-20.04568 -40.2775,-34.36311 -71.3638,-49.90288 -16.348,-8.17224 -24.6904,-11.78775 -54.7074,-23.70974 -37.7186,-14.98082 -49.3292,-20.29904 -59.7504,-27.36842 -18.2178,-12.35846 -28.1691,-29.3295 -28.1498,-48.00669 0.022,-20.83941 10.1932,-42.87356 27.9638,-60.57611 19.5672,-19.49236 44.6534,-32.21777 82.2125,-41.70372 45.7141,-11.54557 93.0722,-14.23082 116.6645,-6.61498 10.1486,3.27605 17.8959,8.99667 20.6229,15.22779 0.7878,1.8 2.1091,4.01384 2.9364,4.91964 5.0369,5.51506 -7.8076,11.43651 -20.8111,9.59409 -7.66,-1.08532 -12.1399,-3.78772 -12.1399,-7.32306 0,-1.64503 -0.6277,-2.40627 -3.2522,-3.94433 -2.7955,-1.63825 -4.0664,-1.90057 -9.0504,-1.868 -18.1866,0.11885 -52.3795,8.42128 -74.8877,18.18362 -31.0055,13.44782 -52.3419,36.73835 -56.1519,61.29461 -2.1296,13.72503 2.5808,27.57862 12.3412,36.29692 6.6797,5.96657 23.0802,13.21183 66.6373,29.43854 10.5729,3.9388 35.5516,14.68682 46.9091,20.18441 37.5388,18.17057 64.5532,36.60081 88.066,60.08191 28.1284,28.09051 41.368,52.33301 41.3835,75.77566 0.015,22.12652 -11.9558,43.54966 -35.9949,64.41953 -33.3381,28.94279 -82.2992,47.57618 -144,54.80284 -15.452,1.80979 -50.855,2.66929 -65.0909,1.58025 -8.1536,-0.62373 -9.2784,-0.56517 -10.9091,0.56796 -3.86,2.68216 -9.6873,5.16568 -15.4499,6.5845 -6.895,1.69763 -22.8332,2.43773 -30.3683,1.41016 z"
       id="path1" />
  </g>
</svg>
