<?xml version="1.0" encoding="UTF-8" standalone="no"?>
<!-- Created with Inkscape (http://www.inkscape.org/) -->

<svg
   version="1.1"
   id="svg1"
   width="122.469"
   height="204.894"
   viewBox="0 0 122.469 204.89399"
   sodipodi:docname="lightSwitch.svg"
   inkscape:version="1.4.2 (f4327f4, 2025-05-13)"
   xmlns:inkscape="http://www.inkscape.org/namespaces/inkscape"
   xmlns:sodipodi="http://sodipodi.sourceforge.net/DTD/sodipodi-0.dtd"
   xmlns="http://www.w3.org/2000/svg"
   xmlns:svg="http://www.w3.org/2000/svg">
  <defs
     id="defs1" />
  <sodipodi:namedview
     id="namedview1"
     pagecolor="#ffffff"
     bordercolor="#000000"
     borderopacity="0.25"
     inkscape:showpageshadow="2"
     inkscape:pageopacity="0.0"
     inkscape:pagecheckerboard="0"
     inkscape:deskcolor="#d1d1d1"
     showborder="true"
     inkscape:zoom="1.5744174"
     inkscape:cx="29.852312"
     inkscape:cy="100.67216"
     inkscape:window-width="1920"
     inkscape:window-height="1057"
     inkscape:window-x="-8"
     inkscape:window-y="-8"
     inkscape:window-maximized="1"
     inkscape:current-layer="g1" />
  <g
     inkscape:groupmode="layer"
     inkscape:label="Image"
     id="g1"
     transform="translate(-268.52005,-49.463216)">
    <path
       style="fill:#000000"
       d="m 344.71441,254.15214 c -1.408,-0.11364 -3.64,-0.46436 -4.96,-0.77939 -1.32,-0.31503 -3.264,-0.78181 -4.32,-1.0373 -1.056,-0.25548 -3.864,-0.82028 -6.24,-1.25511 -2.376,-0.43482 -5.02689,-1.00895 -5.89086,-1.27583 -0.86397,-0.26689 -1.85416,-0.48525 -2.20041,-0.48525 -0.34626,0 -1.43937,-0.41015 -2.42914,-0.91145 -0.98978,-0.5013 -2.37559,-1.09334 -3.07959,-1.31564 -0.704,-0.22231 -2.18272,-0.90072 -3.28605,-1.50759 -1.10333,-0.60688 -2.737,-1.32048 -3.63039,-1.58579 -2.14342,-0.63653 -4.18082,-2.54729 -5.43711,-5.09918 -0.95025,-1.93022 -1.00585,-2.26636 -1.27686,-7.71923 -0.26748,-5.38157 -0.40439,-7.13221 -1.25924,-16.10112 -0.19292,-2.024 -0.46807,-5.12 -0.61146,-6.88 -0.30417,-3.73367 -0.95215,-5.7127 -3.21281,-9.81258 -1.83788,-3.33312 -2.43912,-4.07527 -4.40257,-5.43437 -1.93387,-1.33863 -3.69279,-1.908 -6.80351,-2.20233 -4.80591,-0.45473 -6.07828,-0.85906 -7.57372,-2.40677 -0.73355,-0.75919 -1.81355,-1.62633 -2.4,-1.92698 -1.64328,-0.84246 -5.34225,-4.90547 -5.65992,-6.21697 -1.35109,-5.57791 -1.42928,-7.29014 -1.44668,-31.68 -0.004,-5.368 -0.0122,-12.424 -0.0186,-15.68 -0.0104,-5.29714 0.0704,-6.22301 0.76894,-8.8 0.96129,-3.5466 3.61147,-8.81067 6.03203,-11.98147 0.99989,-1.3098 3.30669,-3.93373 5.12621,-5.83095 1.81953,-1.89721 3.72843,-4.02955 4.24201,-4.73853 0.51358,-0.70898 1.07809,-1.28905 1.25446,-1.28905 0.17637,0 0.89128,-1.235076 1.58869,-2.744614 l 1.26801,-2.744614 0.0394,-4.855386 c 0.0216,-2.670462 -0.0578,-9.072934 -0.17649,-14.227716 l -0.21585,-9.372331 1.03055,-3.427669 c 1.28925,-4.288147 1.87236,-5.455225 3.39248,-6.789908 1.60404,-1.408365 4.90627,-2.877761 6.46731,-2.877761 0.68903,0 2.3122,-0.214133 3.60702,-0.475851 1.29483,-0.261718 4.11954,-0.614029 6.27714,-0.782914 2.1576,-0.168884 4.07012,-0.398045 4.25005,-0.509245 0.17993,-0.111201 2.15862,-0.344123 4.39709,-0.517605 2.23847,-0.173482 5.36595,-0.446895 6.94995,-0.607586 1.584,-0.16069 5.76,-0.439079 9.28,-0.618641 8.6887,-0.443228 13.8288,0.08407 17.1309,1.757364 2.0155,1.021335 5.54682,4.328161 6.62917,6.207758 0.46453,0.806696 1.1612,1.89872 1.54815,2.42672 0.38695,0.528 1.06629,2.4 1.50964,4.16 0.68795,2.731033 0.83914,4.255177 1.03167,10.4 0.22407,7.151763 0.23373,7.226163 1.4412,11.105214 1.36536,4.386277 1.91128,5.475854 3.16615,6.319248 0.47844,0.321556 1.49412,1.437282 2.25708,2.47939 0.78507,1.072311 1.90336,2.158075 2.57636,2.501414 0.65405,0.333668 1.57892,1.069854 2.05527,1.635968 1.20269,1.429305 3.9887,3.334985 7.27462,4.975955 3.12513,1.56067 3.792,2.29723 4.59022,5.06988 0.3029,1.05211 0.79883,2.41693 1.10209,3.03293 0.66575,1.35235 1.82055,7.76698 2.0739,11.52 0.10099,1.496 0.32298,3.8 0.49332,5.12 0.17034,1.32 0.52152,4.056 0.78041,6.08 0.54015,4.22288 1.33306,35.74515 1.06652,42.4 -0.20738,5.17794 -0.94558,8.07673 -3.25965,12.8 -2.63086,5.36987 -5.25611,8.09404 -8.98702,9.32563 -1.89497,0.62554 -6.45038,2.78354 -7.36,3.4866 -0.6242,0.48245 -0.64411,0.97432 -0.80628,19.92122 -0.16501,19.27703 -0.17182,19.43864 -0.88434,20.99702 -1.866,4.08122 -5.85059,8.94988 -8.32018,10.16621 -1.41225,0.69557 -1.91005,0.74587 -7.7492,0.78306 -3.432,0.0219 -7.392,-0.0532 -8.8,-0.16686 z m 14.22128,-1.46388 c 2.49586,-0.66422 4.04336,-1.93533 6.49731,-5.33687 3.84843,-5.33448 3.58871,-3.50682 3.62096,-25.4804 0.027,-18.41771 0.0463,-18.99358 0.66557,-19.84 0.80279,-1.09736 4.21901,-2.94277 7.94025,-4.28927 1.57596,-0.57025 3.33626,-1.45025 3.91179,-1.95557 2.63023,-2.30937 5.9003,-8.3177 7.17706,-13.18689 0.69224,-2.64002 0.75533,-3.51996 0.75702,-10.56 0.003,-10.58285 -1.00235,-36.67773 -1.57733,-40.96 -0.25995,-1.936 -0.61319,-5.32 -0.78498,-7.52 -0.17179,-2.2 -0.53445,-4.936 -0.80591,-6.08 -0.27146,-1.144 -0.49569,-2.42611 -0.49829,-2.84912 -0.003,-0.42302 -0.35167,-1.50302 -0.7757,-2.4 -0.42403,-0.89699 -0.8727,-2.17432 -0.99705,-2.83853 -0.37807,-2.01955 -1.38048,-3.11233 -4.15198,-4.52629 -3.34286,-1.70546 -6.37624,-3.80183 -7.27846,-5.030149 -0.39685,-0.540275 -1.31388,-1.261996 -2.03785,-1.603821 -0.79966,-0.377559 -1.732,-1.212336 -2.37537,-2.126795 -0.58247,-0.827912 -1.86446,-2.297294 -2.84885,-3.265294 -1.72941,-1.700601 -1.83813,-1.911198 -3.22148,-6.24 l -1.43167,-4.48 -0.20783,-7.52 c -0.18522,-6.701974 -0.2945,-7.815882 -1.00453,-10.24 -1.62606,-5.551569 -6.40886,-11.105498 -10.61706,-12.328854 -0.92316,-0.26837 -2.88862,-0.627073 -4.36769,-0.797117 -3.56292,-0.40962 -13.91829,-0.400503 -15.33132,0.0135 -0.61484,0.180139 -2.84589,0.477294 -4.95789,0.660343 -2.112,0.18305 -5.208,0.451518 -6.88,0.596596 -4.90833,0.425893 -9.29029,0.98862 -11.52,1.47939 -1.144,0.2518 -2.66458,0.457442 -3.37908,0.456982 -1.94584,-0.0013 -6.5096,1.249353 -7.88803,2.161561 -1.58876,1.05139 -2.21351,2.135027 -3.45779,5.997602 l -1.03084,3.2 0.20173,14.4 0.20174,14.4 -1.38643,3.04 c -1.20714,2.646876 -1.80006,3.474516 -4.58501,6.400006 -6.9579,7.30903 -8.93761,9.81429 -11.12629,14.08 -3.37608,6.57995 -3.15274,4.44156 -3.25862,31.2 -0.0732,18.5043 -0.004,23.7591 0.33216,25.28 0.23352,1.056 0.5267,2.6381 0.6515,3.51578 0.1248,0.87769 0.4145,1.95769 0.64379,2.4 0.52836,1.01928 4.4538,4.80422 4.98255,4.80422 0.21823,0 1.13923,0.70218 2.04667,1.56039 1.84119,1.74133 3.02714,2.13277 7.85195,2.59167 3.11607,0.29638 4.43497,0.70845 6.24,1.94955 2.4689,1.69758 3.58077,3.04961 5.50856,6.69839 2.68868,5.08894 3.18881,7.00129 3.59857,13.76 0.41708,6.87944 0.88745,12.0803 1.30045,14.37877 0.17183,0.95633 0.31242,3.41419 0.31242,5.46192 0,4.51926 0.48427,6.35821 2.2625,8.59157 1.12479,1.41269 1.58739,1.72392 3.38985,2.28064 1.14801,0.35459 2.90472,1.14924 3.90378,1.7659 0.99907,0.61666 2.03371,1.1212 2.29921,1.1212 0.26549,0 1.51956,0.49689 2.78682,1.10421 1.26725,0.60732 2.84719,1.19252 3.51097,1.30046 0.66378,0.10794 1.78287,0.39686 2.48687,0.64204 0.704,0.24519 3.10416,0.74219 5.33369,1.10445 2.22952,0.36226 4.65963,0.87245 5.40023,1.13375 0.7406,0.2613 1.7249,0.47509 2.18733,0.47509 0.46243,0 1.84787,0.288 3.07875,0.64 1.23088,0.352 3.10242,0.6483 4.15898,0.65844 1.05656,0.0101 2.49702,0.13758 3.20102,0.2832 2.22038,0.45927 9.43414,0.3749 11.34128,-0.13264 z m -27.12698,-8.089 c -0.15971,-0.66 -0.69291,-3.04183 -1.1849,-5.29296 l -0.89452,-4.09296 -2.24755,0.093 -2.24756,0.093 -0.94344,4.32 c -0.9451,4.32758 -1.31494,5.11812 -2.05044,4.38289 -0.31213,-0.31202 -0.25702,-1.19148 0.26497,-4.22842 0.36249,-2.10896 0.57605,-4.36254 0.47457,-5.00796 -0.10647,-0.67712 -0.0471,-1.21928 0.14028,-1.28175 0.17863,-0.0595 0.6157,-1.80891 0.97126,-3.88747 0.35556,-2.07857 1.11338,-5.02979 1.68404,-6.55825 0.97956,-2.62365 1.09,-2.77904 1.97516,-2.77904 1.0916,0 1.1149,0.0718 1.91951,5.92 0.81689,5.93738 1.13747,7.33487 1.6385,7.14261 0.64583,-0.24783 0.93649,0.82386 0.37557,1.38478 -0.42368,0.42369 -0.3576,0.93703 0.58386,4.53519 1.2663,4.83967 1.38122,6.45742 0.45872,6.45742 -0.46034,0 -0.70507,-0.31989 -0.91803,-1.2 z m -2.60795,-10.88 c 0.0286,-1.08209 -1.44242,-10.60383 -1.60834,-10.41025 -0.11796,0.13764 -0.53422,2.19425 -0.92501,4.57025 -0.39079,2.376 -0.79087,4.716 -0.88907,5.2 -0.17788,0.87674 -0.17188,0.88 1.61877,0.88 0.98851,0 1.80016,-0.108 1.80365,-0.24 z m 18.7967,10.4 c -0.9539,-1.45958 -1.81351,-3.38116 -2.90388,-6.49133 -1.90565,-5.43571 -1.64518,-5.01876 -2.74201,-4.38926 -1.18131,0.67797 -2.52232,0.29526 -3.20075,-0.91345 -0.73002,-1.30061 -0.2956,-1.88596 1.39964,-1.88596 1.42538,0 1.45177,-0.0186 1.24911,-0.88 -0.44838,-1.90583 -1.5379,-3.97025 -2.5767,-4.88233 -0.5999,-0.52672 -1.22972,-0.95767 -1.39959,-0.95767 -0.36693,0 -0.38923,7.14063 -0.0323,10.35376 0.17637,1.58791 0.39954,2.28099 0.80809,2.50963 0.49199,0.27533 0.53868,0.63034 0.36387,2.76624 -0.298,3.64117 -0.39536,3.94852 -1.21361,3.83114 -0.67515,-0.0968 -0.72372,-0.34979 -1.24817,-6.50077 -0.30012,-3.52 -0.55491,-7.78859 -0.5662,-9.48576 -0.0166,-2.49613 -0.11653,-3.12261 -0.52296,-3.27857 -0.30138,-0.11565 -0.46145,-0.48151 -0.4,-0.91424 0.0922,-0.64963 0.27806,-0.72098 1.86704,-0.71691 1.30593,0.003 2.02446,0.18956 2.76432,0.71639 1.34934,0.96081 2.87011,3.40865 3.32943,5.35909 0.20724,0.88 0.5081,1.816 0.66858,2.08 0.78279,1.28774 2.19493,4.58921 2.97216,6.94866 0.7985,2.42401 0.91337,2.59902 1.47543,2.24801 0.93058,-0.58116 1.31048,0.0459 1.50637,2.48624 0.13072,1.62847 0.0649,2.20971 -0.27448,2.42462 -0.65529,0.41493 -0.80421,0.36682 -1.32336,-0.42753 z m -37.49247,-3.84 c -0.69649,-0.62287 -0.84999,-1.13921 -1.13784,-3.82739 -0.18301,-1.70906 -0.33274,-5.20106 -0.33274,-7.76 0,-3.8863 -0.0777,-4.65261 -0.47178,-4.65261 -0.25948,0 -0.70283,-0.44679 -0.98521,-0.99286 -0.42051,-0.81316 -0.44472,-1.15874 -0.13381,-1.90936 0.2088,-0.50407 0.65214,-1.00299 0.98521,-1.1087 0.36389,-0.1155 0.60559,-0.48725 0.60559,-0.93146 0,-0.83453 0.76017,-1.61889 1.26598,-1.30628 0.18371,0.11354 0.33824,0.59393 0.3434,1.06755 0.008,0.73948 0.35835,1.05367 2.48,2.22436 3.54053,1.95361 5.51018,3.54153 6.62051,5.33742 0.8174,1.32211 0.98789,1.96017 1.08305,4.0535 0.0976,2.14777 -0.001,2.73349 -0.72868,4.32276 -1.18449,2.58726 -2.78338,4.40586 -4.72366,5.37274 -2.09138,1.04217 -3.78512,1.08055 -4.87002,0.11033 z m 4.24936,-1.33928 c 1.25132,-0.64709 3.20227,-2.89394 3.91826,-4.51255 1.34158,-3.03286 1.06176,-5.95265 -0.77167,-8.052 -1.09858,-1.25793 -6.46627,-4.89617 -7.22357,-4.89617 -0.38584,0 -0.42301,0.96692 -0.24299,6.32 0.24792,7.37208 0.41949,8.82706 1.01397,8.59893 0.2306,-0.0885 0.5845,0.0382 0.78644,0.28153 0.28786,0.34685 0.19032,0.5962 -0.45154,1.15429 -0.62606,0.54435 -0.73539,0.81228 -0.4646,1.13856 0.46641,0.56199 2.3199,0.54441 3.4357,-0.0326 z m -5.82134,-17.20072 c -0.10216,-0.25527 -0.17798,-0.17945 -0.19334,0.19333 -0.0139,0.33734 0.0617,0.52634 0.16807,0.42 0.10634,-0.10633 0.11771,-0.38233 0.0253,-0.61333 z m 41.70337,15.90518 c -0.17708,-0.46576 -0.32197,-1.59777 -0.32197,-2.51557 0,-0.91779 -0.23358,-3.46442 -0.51906,-5.65916 -0.65565,-5.04055 -0.75179,-11.39683 -0.18739,-12.39045 0.41687,-0.73391 1.4734,-0.97125 1.82086,-0.40904 0.10571,0.17103 -0.0519,0.68341 -0.35012,1.13863 -0.47235,0.72089 -0.51581,1.41355 -0.33692,5.36904 0.11297,2.49775 0.33865,4.97337 0.50151,5.50137 0.16286,0.528 0.30849,0.73083 0.32362,0.45072 0.0636,-1.17843 6.3686,-6.37072 7.73591,-6.37072 1.80205,0 -0.2319,2.89986 -3.71795,5.30079 l -1.72829,1.19032 2.97007,3.39444 c 1.63354,1.86695 3.35655,3.58231 3.82891,3.81191 0.92536,0.44979 1.16767,1.56412 0.40386,1.85722 -0.80323,0.30823 -1.69753,-0.4496 -4.86196,-4.12 -1.70453,-1.97707 -3.20931,-3.63861 -3.34394,-3.6923 -0.43149,-0.17206 -0.72661,1.29581 -0.91523,4.55212 -0.1909,3.29565 -0.6708,4.25062 -1.30191,2.59068 z M 316.9633,173.07177 c -0.61148,-0.91988 -5.52761,-7.85284 -10.92474,-15.40657 -6.73994,-9.43311 -9.75759,-13.90853 -9.63614,-14.29119 0.0973,-0.30643 3.44724,-6.11805 7.44441,-12.91473 l 7.26758,-12.35759 0.96,0.1682 c 0.88956,0.15585 7.13263,-0.29659 7.37016,-0.53413 0.0581,-0.0581 -0.14963,-1.03963 -0.46172,-2.1811 -0.31209,-1.14147 -0.88357,-4.2354 -1.26996,-6.8754 -0.3864,-2.64 -0.98746,-6.13324 -1.3357,-7.76275 -0.34824,-1.629519 -0.72155,-3.808364 -0.82958,-4.841882 -0.1811,-1.732677 -0.12014,-1.989974 0.78222,-3.301502 1.64089,-2.384956 4.60957,-4.913674 6.25498,-5.327993 3.65605,-0.920604 10.51655,-0.0305 14.23587,1.847005 1.4991,0.756745 2.18693,1.359857 3.0726,2.694187 0.62762,0.945548 1.14113,2.06525 1.14113,2.488224 0,0.422975 -0.36191,2.375641 -0.80425,4.33926 -0.714,3.169561 -0.7948,4.174811 -0.72,8.957831 0.0463,2.96319 -0.0273,6.03622 -0.16356,6.82895 l -0.24781,1.44134 3.17959,-10e-4 c 1.74878,-7.3e-4 3.23836,0.0707 3.31018,0.15867 0.41107,0.50366 16.43863,23.47295 16.59611,23.78409 0.10465,0.20675 0.35677,0.69815 0.56027,1.092 0.32329,0.62568 -0.0996,1.757 -3.34926,8.96 -2.0456,4.53415 -5.13373,11.39673 -6.86253,15.25017 -1.72879,3.85344 -3.26307,7.12607 -3.40951,7.27251 -0.14644,0.14644 -3.64643,0.4125 -7.77774,0.59125 -8.17155,0.35355 -10.71982,0.51384 -15.35149,0.96562 -1.672,0.16309 -4.13785,0.37142 -5.47967,0.46295 l -2.43967,0.16643 z m 10.79111,-0.56819 c 3.69535,-0.49171 11.57782,-0.97075 15.84,-0.96264 2.2,0.004 4.16161,-0.098 4.35914,-0.22703 0.19753,-0.12906 1.36748,-2.46665 2.59988,-5.19465 3.76968,-8.34436 7.94057,-17.59277 9.45264,-20.96 l 1.43698,-3.2 -0.5962,-1.12 c -0.32791,-0.616 -4.09186,-6.08081 -8.36432,-12.14403 -5.89606,-8.36732 -7.96091,-11.06967 -8.56812,-11.21344 -0.44,-0.10418 -1.6211,-0.13444 -2.62466,-0.0672 -1.72969,0.1158 -1.84067,0.1748 -2.13211,1.13344 -0.16909,0.5562 -0.38011,3.1805 -0.46894,5.83178 -0.0888,2.65128 -0.41459,6.8752 -0.72392,9.38649 -0.4847,3.93501 -0.4994,4.60586 -0.10639,4.85459 0.25081,0.15874 0.34301,0.29081 0.20489,0.29351 -0.13813,0.003 0.28069,0.47185 0.9307,1.04257 1.67285,1.46878 2.67511,3.78176 2.67028,6.16233 -0.007,3.5208 -1.89728,6.15021 -5.7215,7.95939 -1.89056,0.89439 -2.40584,0.99535 -4.98835,0.9774 -3.5113,-0.0244 -5.78119,-0.81057 -8.01321,-2.77527 -3.99823,-3.51938 -4.02299,-9.10186 -0.0559,-12.59386 l 1.46319,-1.28795 -0.75891,-3.17986 c -0.4174,-1.74892 -1.06357,-4.04385 -1.43594,-5.09985 -0.7822,-2.21824 -1.90691,-7.26106 -1.91425,-8.58286 -0.003,-0.49657 -0.20815,-1.106 -0.45644,-1.35428 -0.24828,-0.24829 -0.50028,-0.58084 -0.56,-0.73901 -0.0635,-0.16811 -0.90619,-0.17381 -2.02857,-0.0137 -1.056,0.15062 -2.72574,0.35704 -3.71054,0.4587 -1.70106,0.17562 -1.82816,0.25198 -2.54322,1.52801 -0.41397,0.73873 -3.47658,5.94558 -6.80581,11.57077 l -6.05314,10.22761 0.58529,1.13239 c 0.47162,0.91245 16.53824,23.74102 19.56241,27.79562 l 0.79302,1.06323 3.246,-0.20205 c 1.78529,-0.11112 4.25399,-0.33617 5.48599,-0.5001 z m 7.108,-19.54627 c 3.209,-1.18163 5.52432,-4.14928 5.53022,-7.08833 0.003,-1.69219 -2.04181,-5.34972 -2.99143,-5.34972 -0.24802,0 -0.59859,1.02683 -0.92027,2.69548 -0.2858,1.48252 -0.76818,3.07481 -1.07196,3.53844 -1.2756,1.9468 -5.44799,2.87163 -7.3457,1.6282 -1.09465,-0.71724 -2.57841,-3.88829 -2.85493,-6.10146 -0.1203,-0.96281 -0.33057,-1.8197 -0.46727,-1.90418 -0.40965,-0.25318 -2.32103,1.81094 -2.94796,3.18352 -0.32156,0.704 -0.58781,1.79418 -0.59167,2.42262 -0.01,1.55261 1.49402,4.3799 2.93856,5.52563 2.6718,2.11912 7.23068,2.73553 10.72241,1.4498 z m -1.828,-6.76529 c 1.49935,-0.74557 1.91377,-2.18276 3.389,-11.75276 0.25774,-1.672 0.6028,-6.208 0.76679,-10.08 0.164,-3.872 0.44518,-8.048 0.62485,-9.28 0.17968,-1.232 0.33323,-4.832 0.34124,-8 0.0114,-4.52577 0.14817,-6.34283 0.63812,-8.479999 0.80381,-3.506227 0.79323,-4.279071 -0.08,-5.839385 -1.355,-2.421174 -6.88653,-4.262953 -12.56,-4.181981 -1.584,0.02261 -3.19568,0.162764 -3.58152,0.311461 -0.92019,0.354633 -4.82,4.149927 -5.38309,5.238828 -0.4659,0.900947 -0.50446,0.562032 0.92722,8.151076 0.26562,1.408 0.79766,4.63733 1.18231,7.17628 0.38464,2.53895 1.03823,5.70695 1.45242,7.04 0.41418,1.33305 0.75522,2.87286 0.75786,3.4218 0.009,1.8978 0.98154,6.58825 2.07081,9.98857 0.6014,1.87734 1.46912,5.14135 1.92828,7.25335 1.81551,8.35082 2.42382,9.44431 5.24886,9.43528 0.81227,-0.003 1.83685,-0.18373 2.27685,-0.40252 z m -35.68,-56.585958 c -0.88,-0.177141 -1.816,-0.539427 -2.08,-0.805081 -0.42691,-0.429586 -0.40037,-0.548336 0.24,-1.073658 0.98827,-0.810726 0.95193,-2.518085 -0.25335,-11.90084 -0.5982,-4.656918 -0.93736,-8.604368 -0.88,-10.242242 0.0878,-2.506769 0.13714,-2.671188 0.83096,-2.769544 0.40569,-0.05751 0.94569,0.06812 1.2,0.279182 0.62296,0.517006 0.58633,1.804218 -0.0616,2.166846 -0.47937,0.268271 -0.42457,1.094622 0.643,9.6959 0.64187,5.17145 1.20169,10.194636 1.24404,11.162636 l 0.077,1.76 2.56,-0.02073 c 1.408,-0.0114 3.136,-0.0834 3.84,-0.16 1.11051,-0.120825 1.28,-0.05509 1.28,0.496422 0,0.385085 -0.36389,0.810096 -0.92306,1.078098 -1.17216,0.561804 -5.62562,0.753988 -7.71694,0.333015 z m 10.94768,-5.704728 c -2.01274,-2.392007 -2.91056,-6.955087 -2.93208,-14.902073 -0.015,-5.551867 0.008,-5.76 0.6244,-5.76 0.60096,0 0.65455,0.292833 0.8785,4.8 0.46646,9.388039 1.6716,14.466252 3.60774,15.202372 1.17109,0.445248 0.94169,1.407059 -0.36604,1.534709 -0.78105,0.07624 -1.17016,-0.111609 -1.81252,-0.875008 z m 8.3896,-1.068109 c -1.40017,-0.943572 -2.71133,-3.112013 -3.32633,-5.501196 -0.98797,-3.838054 -0.39626,-12.226334 1.03612,-14.688516 1.2176,-2.092985 3.74534,-0.877987 3.52849,1.696029 -0.13143,1.56017 -1.04026,1.716122 -1.63938,0.281309 l -0.44328,-1.06159 -0.36852,1.28 c -0.59268,2.058525 -1.07496,7.211616 -0.85356,9.12 0.71266,6.142804 3.83101,9.549058 6.06299,6.622775 1.6776,-2.199443 2.38933,-5.451415 1.28578,-5.874885 -0.70917,-0.272137 -1.93203,0.359942 -2.56484,1.325738 -0.50853,0.776114 -0.50617,0.859164 0.0417,1.464532 0.53585,0.5921 0.5406,0.681956 0.0614,1.16118 -0.47922,0.479223 -0.58281,0.477882 -1.33861,-0.01734 -0.96145,-0.629971 -1.11155,-2.228416 -0.34792,-3.705121 1.07346,-2.075845 4.93544,-2.846332 6.07953,-1.212904 1.20201,1.716113 0.0647,6.051922 -2.21022,8.426172 -1.15846,1.209038 -1.53426,1.409851 -2.6384,1.409851 -0.80849,0 -1.68838,-0.27013 -2.3649,-0.726036 z m 21.5092,-2.577954 c -0.46107,-0.55556 -1.46666,-4.915466 -2.16229,-9.37494 l -0.55514,-3.55893 -1.50176,0.754289 -1.50176,0.754289 1.12524,2.964641 c 0.61888,1.630553 1.13964,3.540641 1.15724,4.244641 0.029,1.160532 -0.0427,1.28 -0.76801,1.28 -0.6307,0 -1.22327,-0.567811 -2.80006,-2.683079 -1.10004,-1.475693 -2.16807,-3.24382 -2.3734,-3.92917 -0.33355,-1.113302 -0.29942,-1.346075 0.32035,-2.184349 l 0.69368,-0.93826 -0.65614,-1.664642 c -0.84386,-2.140886 -0.7561,-4.2805 0.17557,-4.2805 0.4454,0 0.66729,0.243255 0.72977,0.8 0.12497,1.113752 1.44391,4.48 1.75533,4.48 0.1409,0 0.97139,-0.362426 1.84554,-0.805391 l 1.58936,-0.80539 v -1.91461 c 0,-1.487942 0.14262,-2.057232 0.64,-2.554609 0.79127,-0.791273 1.01703,-0.795525 1.95401,-0.0368 0.95679,0.774761 0.93423,2.790161 -0.0491,4.381141 -0.75323,1.218741 -0.77483,0.889029 0.53768,8.206887 0.44752,2.495169 0.55212,2.739728 0.98614,2.305714 0.26703,-0.267031 0.64879,-0.428068 0.84836,-0.35786 0.46509,0.163613 0.3866,3.759672 -0.10198,4.672593 -0.40438,0.755595 -1.3616,0.87943 -1.88868,0.244338 z m -6.57799,-8.489906 c -0.0931,-0.150643 -0.32163,-0.674614 -0.50783,-1.16438 -0.18621,-0.489767 -0.41716,-0.811895 -0.51321,-0.715842 -0.18965,0.18965 0.74023,2.154118 1.01965,2.154118 0.0939,0 0.0945,-0.123253 10e-4,-0.273896 z m 16.12411,5.953896 c -1.20378,-1.962279 -1.3832,-3.176108 -1.51104,-10.222685 l -0.12596,-6.942686 -1.3378,-0.09731 c -0.73579,-0.05352 -1.57072,0.03341 -1.85541,0.193188 -1.24883,0.700887 -2.12542,-0.801754 -1.07848,-1.8487 0.37939,-0.379389 0.96518,-0.443563 2.71209,-0.297108 1.92247,0.161173 2.56171,0.06516 4.6592,-0.699839 1.83855,-0.670558 2.52111,-0.796542 2.80071,-0.516941 0.60656,0.606554 -0.14385,1.402325 -2.04632,2.170021 l -1.72959,0.697937 -0.25805,1.862063 c -0.14193,1.024135 -0.20002,3.950064 -0.12911,6.502064 0.10543,3.793835 0.25903,4.990137 0.84225,6.56 1.12014,3.015092 1.18817,3.68 0.37653,3.68 -0.42413,0 -0.92169,-0.392306 -1.31902,-1.04 z"
       id="path1" />
  </g>
</svg>
