<?xml version="1.0" encoding="UTF-8" standalone="no"?>
<!-- Created with Inkscape (http://www.inkscape.org/) -->

<svg
   version="1.1"
   id="svg1"
   width="454.453"
   height="444.5715"
   viewBox="0 0 454.45301 444.57151"
   xmlns="http://www.w3.org/2000/svg"
   xmlns:svg="http://www.w3.org/2000/svg">
  <defs
     id="defs1" />
  <g
     id="g1"
     transform="translate(-720.44274,-324.79146)">
    <path
       style="fill:#000000"
       d="m 920.4193,768.30798 c -51.87301,-6.15408 -98.53493,-28.44772 -134.59696,-64.30631 -36.60542,-36.39892 -58.34367,-81.09695 -64.33036,-132.27565 -1.41187,-12.06975 -1.39622,-36.96266 0.0309,-49.18335 4.03228,-34.52846 15.85586,-67.10469 34.84169,-95.99553 14.85815,-22.60974 36.24105,-44.28633 59.32744,-60.1423 29.37119,-20.17243 66.21203,-34.33461 98.18182,-37.74259 4.40978,-0.47008 9.17282,-1.46117 11.27272,-2.34561 3.3782,-1.42283 4.95303,-1.5311 22.18182,-1.52495 22.75158,0.008 38.11348,1.77743 57.09093,6.57544 52.6118,13.30172 96.1742,42.41308 128.2128,85.68057 20.4072,27.55942 34.8255,62.60462 40.1921,97.691 1.9799,12.94411 2.7062,39.22071 1.4468,52.34374 -6.5078,67.81381 -42.2587,127.22714 -99.3063,165.03387 -30.3182,20.09258 -66.7861,32.8931 -104.25884,36.59572 -10.44194,1.03174 -40.19959,0.79264 -50.28658,-0.40405 z M 891.64092,646.7949 c 4.70903,-3.13628 9.60998,-6.35687 10.891,-7.15687 1.28103,-0.8 5.36582,-3.58181 9.0773,-6.18181 3.71149,-2.6 8.48363,-5.87273 10.60475,-7.27273 6.21051,-4.09912 19.89694,-13.39935 26.43281,-17.96168 3.32512,-2.32107 8.77837,-6.02014 12.11835,-8.22014 11.22952,-7.39675 36.30463,-24.44151 45.47237,-30.90975 13.7463,-9.69861 19.7633,-13.82477 32.3636,-22.19304 8.6736,-5.76044 21.7044,-15.60788 23.9336,-18.08678 1.8257,-2.03017 0.9145,-4.09283 -3.3278,-7.53378 -2.6927,-2.18397 -21.7749,-15.48752 -57.5307,-40.10867 -4.70876,-3.24238 -11.41785,-7.87207 -14.90913,-10.28819 -3.49128,-2.41613 -10.11141,-6.97001 -14.71141,-10.11974 -4.6,-3.14973 -22.92727,-15.76466 -40.72727,-28.03318 -17.8,-12.26852 -35.11914,-24.19999 -38.48698,-26.51437 -3.36784,-2.31438 -7.25978,-4.6828 -8.64875,-5.26314 -5.31106,-2.21911 -8.20655,0.66222 -9.49044,9.444 -1.23103,8.42026 -1.1875,8.61834 2.3923,10.88515 3.07577,1.94765 3.15072,2.08465 2.58614,4.72728 -0.95146,4.45349 -1.40037,19.26042 -1.94565,64.17604 -0.74249,61.15994 -0.57035,137.14558 0.35235,155.53121 l 0.37796,7.53121 2.30687,-0.37435 c 1.26877,-0.20589 6.1597,-2.9404 10.86873,-6.07667 z m 1.13238,-19.66738 c -0.0186,-8.15947 -0.79957,-44.65997 -1.84846,-86.39857 -0.58302,-23.2 -1.37914,-55.10909 -1.76915,-70.90909 -0.39002,-15.8 -0.89596,-31.42727 -1.12433,-34.72727 -0.42319,-6.11536 -0.0277,-7.03898 2.10223,-4.90909 0.6,0.6 1.41428,1.09091 1.80952,1.09091 0.39524,0 0.82771,0.24545 0.96104,0.54545 0.29841,0.67143 9.01471,6.72728 9.6827,6.72728 0.26499,0 0.93798,0.40909 1.49552,0.90909 1.82274,1.6346 2.78499,2.33403 11.03203,8.01876 4.48231,3.08968 8.4914,5.6176 8.90909,5.6176 0.4177,0 0.75945,0.31348 0.75945,0.69661 0,0.38314 1.55454,1.5941 3.45454,2.69103 1.9,1.09693 3.71626,2.41981 4.03614,2.93975 0.31988,0.51993 1.21988,0.94534 2,0.94534 0.78012,0 1.41841,0.32263 1.41841,0.71695 0,0.39432 1.39091,1.61853 3.09091,2.72047 1.7,1.10193 3.25454,2.17113 3.45454,2.37601 0.53988,0.55305 8.97852,6.13933 9.78796,6.47952 0.38338,0.16113 1.52549,1.06113 2.53803,2 1.01253,0.93888 2.19169,1.70705 2.62035,1.70705 0.42866,0 1.41383,0.58105 2.18925,1.29123 2.29154,2.09873 15.42687,11.0724 16.20737,11.0724 0.3947,0 0.82674,0.28439 0.96007,0.63197 0.13333,0.34758 3.35151,2.7077 7.15151,5.24472 3.8,2.53702 7.07273,4.789 7.27273,5.0044 0.2,0.2154 4.21117,3.00982 8.91371,6.20982 4.70254,3.2 11.73894,8.0262 15.63634,10.72489 14.0133,9.70311 17.7642,12.1842 18.42,12.1842 0.3665,0 0.6663,0.30327 0.6663,0.67395 0,0.37067 0.5395,0.77976 1.1988,0.90909 1.4136,0.27726 -5.0027,5.27183 -19.017,14.8033 -17.05085,11.59672 -39.40458,27.11258 -78.54542,54.51887 -21.2,14.84417 -40.1,28.05156 -42,29.34976 l -3.45454,2.36036 z"
       id="path1" />
  </g>
</svg>
