<?xml version="1.0" encoding="UTF-8" standalone="no"?>
<!-- Created with Inkscape (http://www.inkscape.org/) -->

<svg
   version="1.1"
   id="svg1"
   width="454.45303"
   height="444.5715"
   viewBox="0 0 454.45304 444.57151"
   xmlns="http://www.w3.org/2000/svg"
   xmlns:svg="http://www.w3.org/2000/svg">
  <defs
     id="defs1" />
  <g
     id="g1"
     transform="translate(-642.0504,-317.82325)">
    <path
       style="fill:#000000"
       d="M 842.02696,761.33977 C 790.15395,755.18569 743.49203,732.89205 707.43,697.03346 670.82458,660.63454 649.08633,615.93651 643.09964,564.75781 c -1.41187,-12.06975 -1.39622,-36.96266 0.0309,-49.18335 4.03228,-34.52846 15.85586,-67.10469 34.84169,-95.99553 14.85815,-22.60974 36.24105,-44.28633 59.32744,-60.1423 29.37119,-20.17243 66.21203,-34.33461 98.18182,-37.74259 4.40978,-0.47008 9.17282,-1.46117 11.27272,-2.34561 3.3782,-1.42283 4.95303,-1.5311 22.18182,-1.52495 22.75158,0.008 38.11348,1.77743 57.09091,6.57544 52.61184,13.30172 96.17426,42.41308 128.21286,85.68057 20.4071,27.55942 34.8254,62.60462 40.1921,97.691 1.9799,12.94411 2.7062,39.22071 1.4468,52.34374 -6.5078,67.81381 -42.2587,127.22714 -99.30631,165.03387 -30.31822,20.09258 -66.78611,32.8931 -104.25887,36.59572 -10.44194,1.03174 -40.19959,0.79264 -50.28658,-0.40405 z M 823.48151,653.54543 c 2,-0.0118 38.16363,0.0628 80.36363,0.16574 42.2,0.10298 78.36363,-0.007 80.36363,-0.24523 3.08483,-0.36689 3.67231,-0.68598 3.87335,-2.10387 0.13035,-0.91927 -0.37215,-2.8829 -1.11667,-4.36364 -1.1043,-2.19629 -1.23821,-3.36212 -0.72693,-6.32861 0.85652,-4.96958 1.15808,-147.67264 0.3919,-185.45453 -0.38297,-18.88519 -0.92208,-31.29539 -1.41227,-32.51 -1.33148,-3.29923 -3.78401,-4.30166 -12.44348,-5.08607 -4.39527,-0.39814 -8.26791,-0.44735 -8.60588,-0.10936 -0.33796,0.33798 -44.93259,0.5689 -99.09916,0.51314 -86.35991,-0.0889 -98.69811,-0.23627 -100.21822,-1.197 -4.42496,-2.79663 -8.49856,-2.04333 -10.33358,1.91093 -1.55425,3.34921 -2.87128,12.32228 -2.39316,16.30482 0.22755,1.89545 0.59505,20.79172 0.81666,41.99172 0.75861,72.57084 1.68242,124.57737 2.22959,125.51616 0.13632,0.23389 0.29313,5.18652 0.34847,11.00585 0.0553,5.81933 0.33893,12.60173 0.6302,15.072 0.49493,4.19754 0.39655,4.66704 -1.50356,7.17596 -3.66824,4.84354 -2.69176,6.99117 4.66696,10.26435 5.94502,2.64437 8.97684,3.47822 14.71397,4.04683 2.4,0.23787 5.18182,0.61876 6.18182,0.84643 1,0.22767 4.76364,0.51675 8.36364,0.6424 3.6,0.12564 8.67272,0.52972 11.27272,0.89794 2.6,0.36823 6.03637,0.53341 7.63637,0.36708 1.6,-0.16634 3.625,-0.0336 4.49999,0.29492 0.875,0.32854 3.00228,0.55374 4.72728,0.50044 1.725,-0.0533 4.77273,-0.10657 6.77273,-0.1184 z m 149.59605,-21.42106 -1.63626,-1.63636 -89.9799,-0.11973 c -49.48894,-0.0658 -95.83683,0.1863 -102.99531,0.56034 -7.15848,0.37403 -13.11059,0.58489 -13.22692,0.46857 -0.11632,-0.11633 0.0684,-5.44121 0.41037,-11.83307 0.34202,-6.39186 0.81628,-19.31248 1.0539,-28.71248 0.92688,-36.66661 1.13545,-45.31555 1.49074,-61.81817 0.20237,-9.4 0.54755,-32.63637 0.76707,-51.63636 0.36372,-31.48103 0.80322,-47.25266 1.33149,-47.78093 0.10952,-0.10952 5.41271,0.10323 11.78486,0.47279 15.80388,0.91655 30.09384,1.38612 67.22209,2.20893 17.4,0.3856 38.83636,0.87467 47.63636,1.08682 8.8,0.21215 23.03636,0.54945 31.63636,0.74956 8.6,0.2001 21.5718,0.56357 28.82623,0.80769 l 13.18987,0.44386 0.0828,35.36927 c 0.0455,19.4531 0.24398,39.95109 0.44098,45.55109 0.19699,5.6 0.53216,17.54546 0.74481,26.54546 0.21266,9 0.54206,22.58181 0.73201,30.18181 0.3241,12.9675 1.25437,35.0846 2.22542,52.90909 0.23426,4.3 0.30743,7.81818 0.1626,7.81818 -0.14482,0 -0.99964,-0.73636 -1.89958,-1.63636 z"
       id="path1" />
  </g>
</svg>
